<?xml version="1.0" encoding="UTF-8"?>
<svg id="Layer_2" data-name="Layer 2" xmlns="http://www.w3.org/2000/svg" viewBox="0 0 198.51 126">
  <g id="Layer_1-2" data-name="Layer 1">
    <path d="M181.5,27.6c.4,17.2.3,27.5-.2,27.3-.6-.2-20.3-12.3-43.9-26.9S94.3,1.6,94,1.7c-.3.2-.7,12.9-1,28.2l-.5,27.9-44.5-27.5C23.5,15.2,2.7,2.4,1.8,1.9.1,1,0,4.2,0,62.6c0,55,.2,61.6,1.5,61,.9-.3,21.6-12.9,46.1-28.1,24.5-15.1,44.7-27.5,45-27.5.2,0,.4,12.6.4,28,0,16.2.4,28,.9,28s20.4-12.1,44.3-26.8l43.3-26.8.7,4.1c.3,2.2.7,13,.7,24,.1,11,.4,21.7.7,23.7l.7,3.8h6.8c3.7,0,7-.4,7.3-.8.5-.9-.8-68.5-2-106l-.6-19.2h-15.1l.8,27.6Z"/>
  </g>
</svg>