<?xml version="1.0" encoding="UTF-8"?>
<svg id="Layer_2" data-name="Layer 2" xmlns="http://www.w3.org/2000/svg" viewBox="0 0 183.14 126.2">
  <g id="Layer_1-2" data-name="Layer 1">
    <path d="M.6,33.7c.4,18.6,1,47,1.4,63.2l.6,29.3,7.3-.4c4-.2,7.4-.5,7.6-.8s.1-12-.2-26-.4-25.7-.3-25.8c.1-.2,18.5,10.9,40.8,24.8,22.4,13.8,41.3,25.4,42.1,25.7,1.1.4,1.4-3.7,1.6-24.4l.3-24.9,40.3,24.9c22.2,13.7,40.5,24.7,40.8,24.5.2-.3.3-28,.2-61.6l-.3-61.2-40.5,25-40.5,25-.5-25-.5-25-42,25.9-42,25.9-.6-13.6c-.4-7.6-.7-19.4-.8-26.5l-.1-12.7H0l.6,33.7Z"/>
  </g>
</svg>