<svg xmlns="http://www.w3.org/2000/svg" width="256" height="256" viewBox="0 0 256 256"><polygon points="111.9,143.0 107.5,141.1 110.2,149.7"/><polygon points="106.0,142.9 110.2,149.7 107.5,141.1"/><polygon points="110.2,149.7 112.4,162.2 113.6,160.1"/><polygon points="106.0,142.9 112.4,162.2 110.2,149.7"/><polygon points="111.3,162.0 112.4,162.2 106.0,142.9"/><polygon points="111.3,162.0 106.0,142.9 104.7,143.3"/><polygon points="116.7,160.5 144.9,141.9 111.9,143.0"/><polygon points="111.9,143.0 110.2,149.7 116.7,160.5"/><polygon points="113.6,160.1 116.7,160.5 110.2,149.7"/><polygon points="112.4,162.2 118.9,179.0 113.6,160.1"/><polygon points="118.9,179.0 112.4,162.2 111.3,162.0"/><polygon points="118.2,180.4 118.9,179.0 111.3,162.0"/><polygon points="122.6,183.0 113.6,160.1 118.9,179.0"/><polygon points="144.9,153.1 144.9,146.8 143.0,150.8"/><polygon points="144.9,141.9 116.7,160.5 143.0,150.8"/><polygon points="144.2,160.9 116.7,160.5 144.3,163.9"/><polygon points="143.2,168.0 145.0,169.4 144.3,163.9"/><polygon points="116.7,160.5 143.2,168.0 144.3,163.9"/><polygon points="144.9,153.1 143.0,150.8 144.2,160.9"/><polygon points="143.0,150.8 116.7,160.5 144.2,160.9"/><polygon points="146.0,185.1 144.7,186.6 146.0,189.8"/><polygon points="143.2,168.0 122.7,179.0 131.7,178.8"/><polygon points="116.7,160.5 122.7,179.0 143.2,168.0"/><polygon points="122.6,183.0 122.7,179.0 113.6,160.1"/><polygon points="113.6,160.1 122.7,179.0 116.7,160.5"/><polygon points="145.0,169.4 143.2,168.0 144.7,186.6"/><polygon points="144.7,186.6 146.0,185.1 145.0,169.4"/><polygon points="131.7,178.8 144.7,186.6 143.2,168.0"/><polygon points="131.7,178.8 122.7,179.0 130.6,201.0"/><polygon points="144.9,159.7 144.2,160.9 144.3,163.9"/><polygon points="144.9,153.1 144.2,160.9 144.9,159.7"/><polygon points="145.0,169.4 144.9,159.7 144.3,163.9"/><polygon points="144.9,141.9 143.0,150.8 144.9,146.8"/><polygon points="131.7,178.8 130.6,201.0 133.6,201.6"/><polygon points="133.6,201.6 145.3,201.9 145.6,199.8"/><polygon points="128.2,201.3 132.2,206.2 130.6,201.0"/><polygon points="133.6,201.6 130.6,201.0 132.2,206.2"/><polygon points="132.5,207.8 132.2,206.2 128.2,201.3"/><polygon points="135.9,207.7 132.2,206.2 132.5,207.8"/><polygon points="133.6,201.6 132.2,206.2 135.9,207.7"/><polygon points="146.1,205.9 146.6,202.7 145.3,201.9"/><polygon points="146.6,202.7 145.6,199.8 145.3,201.9"/><polygon points="146.1,205.9 145.3,201.9 135.9,207.7"/><polygon points="133.6,201.6 135.9,207.7 145.3,201.9"/><polygon points="146.6,208.6 146.1,205.9 135.9,207.7"/><polygon points="128.2,201.3 118.9,179.0 118.2,180.4"/><polygon points="146.0,185.1 146.0,189.8 146.1,194.6"/><polygon points="145.6,199.8 146.6,202.7 147.0,201.7"/><polygon points="145.6,199.8 147.0,201.7 146.6,194.1"/><polygon points="144.7,186.6 131.7,178.8 133.6,201.6"/><polygon points="122.7,179.0 122.6,183.0 130.6,201.0"/><polygon points="128.2,201.3 130.6,201.0 122.6,183.0"/><polygon points="122.6,183.0 118.9,179.0 128.2,201.3"/><polygon points="145.0,191.0 146.6,194.1 146.0,189.8"/><polygon points="144.7,186.6 145.0,191.0 146.0,189.8"/><polygon points="145.0,191.0 145.6,199.8 146.6,194.1"/><polygon points="133.6,201.6 145.0,191.0 144.7,186.6"/><polygon points="145.6,199.8 145.0,191.0 133.6,201.6"/><polygon points="160.8,200.5 160.0,205.8 160.0,203.9"/><polygon points="159.0,208.0 160.0,205.8 160.8,200.5"/><polygon points="147.3,206.3 146.1,205.9 146.6,208.6"/><polygon points="146.0,195.9 146.1,194.6 147.7,210.8"/><polygon points="146.1,194.6 147.3,206.3 147.7,210.8"/><polygon points="147.3,206.3 146.6,208.6 147.7,210.8"/><polygon points="146.6,202.7 146.1,205.9 147.3,206.3"/><polygon points="147.0,201.7 146.6,202.7 147.3,206.3"/><polygon points="147.2,239.5 148.3,240.7 147.9,241.4"/><polygon points="147.2,238.7 147.2,239.5 147.6,241.4"/><polygon points="147.2,238.7 147.6,241.4 147.2,242.1"/><polygon points="150.3,241.1 147.9,241.4 148.3,240.7"/><polygon points="150.3,241.1 150.7,241.9 148.9,242.2"/><polygon points="147.6,241.4 147.2,239.5 147.9,241.4"/><polygon points="150.3,241.1 148.9,242.2 147.9,241.4"/><polygon points="148.9,242.2 148.8,243.0 147.6,241.4"/><polygon points="148.9,242.2 150.7,241.9 148.8,243.0"/><polygon points="147.9,241.4 148.9,242.2 147.6,241.4"/><polygon points="147.2,238.7 147.9,236.4 148.7,233.4"/><polygon points="147.6,241.4 148.8,243.0 147.2,242.1"/><polygon points="151.1,236.1 151.7,238.7 151.8,233.0"/><polygon points="151.0,235.8 150.7,243.0 150.7,241.9"/><polygon points="151.1,236.1 150.7,241.9 151.7,238.7"/><polygon points="146.6,194.1 147.0,201.7 146.1,194.6"/><polygon points="146.1,194.6 147.0,201.7 147.3,206.3"/><polygon points="145.0,196.8 147.7,210.8 148.7,233.4"/><polygon points="145.0,196.8 146.0,195.9 147.7,210.8"/><polygon points="145.4,192.5 145.8,195.6 145.0,196.8"/><polygon points="145.0,196.8 145.8,195.6 146.0,195.9"/><polygon points="146.0,189.8 146.6,194.1 146.1,194.6"/><polygon points="145.4,192.5 145.0,169.4 146.0,185.1"/><polygon points="146.0,195.9 146.0,185.1 146.1,194.6"/><polygon points="146.0,195.9 145.4,192.5 146.0,185.1"/><polygon points="145.8,195.6 145.4,192.5 146.0,195.9"/><polygon points="146.4,240.0 146.1,242.3 146.5,239.3"/><polygon points="147.2,242.1 146.6,243.1 146.4,240.0"/><polygon points="146.6,243.1 146.1,242.3 146.4,240.0"/><polygon points="147.2,238.7 147.2,242.1 146.4,240.0"/><polygon points="147.9,236.4 146.4,240.0 146.5,239.3"/><polygon points="147.2,238.7 146.4,240.0 147.9,236.4"/><polygon points="148.8,243.0 146.6,243.1 147.2,242.1"/><polygon points="148.8,243.0 149.8,243.7 146.6,243.1"/><polygon points="148.8,243.0 150.7,241.9 149.8,243.7"/><polygon points="151.1,236.1 151.8,233.0 151.0,235.8"/><polygon points="150.7,241.9 151.1,236.1 151.0,235.8"/><polygon points="149.8,243.7 150.7,241.9 150.7,243.0"/><polygon points="148.7,233.4 147.9,236.4 147.7,235.0"/><polygon points="147.7,235.0 147.9,236.4 146.5,239.3"/><polygon points="145.0,196.8 148.7,233.4 147.7,235.0"/><polygon points="146.6,243.1 146.6,244.4 146.1,242.3"/><polygon points="146.6,243.1 148.7,244.4 146.6,244.4"/><polygon points="148.7,244.4 148.1,245.5 146.6,244.4"/><polygon points="149.8,243.7 148.7,244.4 146.6,243.1"/><polygon points="149.8,243.7 148.1,245.5 148.7,244.4"/><polygon points="89.3,35.8 90.1,35.4 90.9,25.0"/><polygon points="90.1,35.4 91.6,24.5 90.9,25.0"/><polygon points="114.7,10.2 114.4,10.2 112.5,23.6"/><polygon points="107.2,21.7 107.0,20.6 108.1,21.8"/><polygon points="109.8,25.1 109.4,25.8 112.0,27.1"/><polygon points="90.1,35.4 93.0,25.5 91.6,24.5"/><polygon points="90.1,35.4 92.4,34.5 93.0,25.5"/><polygon points="95.4,25.6 94.1,20.9 93.0,25.5"/><polygon points="95.4,25.6 99.0,25.1 94.1,20.9"/><polygon points="99.2,25.5 95.6,26.2 95.8,22.5"/><polygon points="95.4,25.6 93.0,25.5 92.4,34.5"/><polygon points="92.4,34.5 98.3,29.6 95.4,25.6"/><polygon points="92.4,34.5 90.1,35.4 92.2,41.7"/><polygon points="92.2,41.7 94.1,35.8 92.4,34.5"/><polygon points="95.4,25.6 98.3,29.6 99.0,25.1"/><polygon points="98.3,29.6 102.6,24.8 99.0,25.1"/><polygon points="92.4,34.5 94.1,35.8 98.3,29.6"/><polygon points="98.3,29.6 103.0,39.8 102.6,24.8"/><polygon points="102.6,24.8 103.0,39.8 106.2,32.2"/><polygon points="108.7,21.6 109.8,25.1 108.1,21.8"/><polygon points="109.3,24.3 110.0,27.8 109.4,25.8"/><polygon points="109.4,25.8 110.0,27.8 112.0,27.1"/><polygon points="109.4,25.8 109.7,19.7 109.4,18.6"/><polygon points="109.4,18.6 109.3,24.3 109.4,25.8"/><polygon points="108.7,21.6 109.4,25.8 109.8,25.1"/><polygon points="105.5,25.9 107.0,25.6 106.4,29.2"/><polygon points="109.8,25.1 112.0,27.1 114.3,25.1"/><polygon points="112.5,23.6 109.8,25.1 114.3,25.1"/><polygon points="114.3,25.1 112.0,27.1 114.3,29.4"/><polygon points="114.3,25.1 114.3,29.4 117.2,26.3"/><polygon points="110.0,27.8 112.0,29.2 112.0,27.1"/><polygon points="112.0,34.1 112.0,29.2 109.4,30.1"/><polygon points="109.4,30.1 112.0,29.2 110.0,27.8"/><polygon points="117.2,26.3 118.8,30.5 121.1,28.9"/><polygon points="109.4,30.1 107.9,23.7 106.8,28.6"/><polygon points="105.2,24.1 106.8,28.6 107.9,23.7"/><polygon points="102.6,24.8 106.8,28.6 105.2,24.1"/><polygon points="104.0,19.7 105.2,24.1 107.9,23.7"/><polygon points="105.5,25.9 106.4,29.2 106.8,50.2"/><polygon points="109.3,24.3 107.9,23.7 110.0,27.8"/><polygon points="109.4,30.1 110.0,27.8 107.9,23.7"/><polygon points="106.8,28.6 112.0,34.1 109.4,30.1"/><polygon points="102.6,24.8 106.2,32.2 106.8,28.6"/><polygon points="112.0,34.1 106.2,32.2 112.8,40.6"/><polygon points="106.2,32.2 112.0,34.1 106.8,28.6"/><polygon points="114.3,29.4 118.8,30.5 117.2,26.3"/><polygon points="112.0,34.1 114.3,29.4 112.0,29.2"/><polygon points="112.0,27.1 112.0,29.2 114.3,29.4"/><polygon points="116.1,35.8 118.8,30.5 114.3,29.4"/><polygon points="112.0,34.1 116.1,35.8 114.3,29.4"/><polygon points="118.8,33.5 118.8,30.5 116.1,35.8"/><polygon points="95.6,26.2 99.2,25.5 96.4,49.5"/><polygon points="102.8,49.3 102.8,25.0 105.5,25.9"/><polygon points="92.6,19.4 90.9,18.2 90.0,19.4"/><polygon points="90.9,25.0 91.6,24.5 90.0,19.4"/><polygon points="107.2,21.7 106.4,23.9 107.0,20.6"/><polygon points="108.1,21.8 107.0,20.6 108.7,21.6"/><polygon points="95.6,52.9 98.3,29.6 94.1,35.8"/><polygon points="98.3,29.6 95.6,52.9 103.0,39.8"/><polygon points="92.4,57.4 94.1,35.8 92.2,41.7"/><polygon points="112.0,34.1 112.8,40.6 116.1,35.8"/><polygon points="112.5,23.6 115.7,14.5 114.7,10.2"/><polygon points="114.7,10.2 116.0,10.2 114.4,10.2"/><polygon points="106.4,23.9 107.0,25.6 105.3,20.5"/><polygon points="105.3,20.5 107.0,25.6 105.5,25.9"/><polygon points="117.6,47.4 118.8,33.5 116.1,35.8"/><polygon points="96.0,17.8 93.9,18.3 92.6,19.4"/><polygon points="92.6,19.4 93.7,19.0 96.0,17.8"/><polygon points="90.9,18.2 92.6,19.4 93.9,18.3"/><polygon points="109.1,47.0 114.3,48.5 112.8,40.6"/><polygon points="95.8,22.5 94.3,20.5 95.8,19.0"/><polygon points="114.3,48.5 117.6,47.4 116.1,35.8"/><polygon points="95.8,22.5 95.6,26.2 94.3,20.5"/><polygon points="94.3,20.5 95.6,26.2 93.4,24.5"/><polygon points="116.1,35.8 112.8,40.6 114.3,48.5"/><polygon points="93.9,18.6 95.8,19.0 94.3,20.5"/><polygon points="95.8,22.5 95.8,19.0 100.6,19.9"/><polygon points="93.9,18.6 93.9,18.3 95.8,19.0"/><polygon points="99.2,25.5 95.8,22.5 100.6,19.9"/><polygon points="92.6,19.4 90.0,19.4 91.6,24.5"/><polygon points="92.6,19.4 91.6,24.5 93.0,25.5"/><polygon points="93.7,19.0 92.6,19.4 93.0,25.5"/><polygon points="93.7,19.0 95.6,18.7 96.0,17.8"/><polygon points="93.7,19.0 94.1,20.9 95.6,18.7"/><polygon points="109.1,47.0 106.2,32.2 103.0,39.8"/><polygon points="100.2,54.0 109.1,47.0 103.0,39.8"/><polygon points="94.1,20.9 101.1,19.9 95.6,18.7"/><polygon points="93.0,25.5 94.1,20.9 93.7,19.0"/><polygon points="89.0,55.9 90.5,78.8 89.8,55.7"/><polygon points="92.4,57.4 92.2,41.7 89.8,55.7"/><polygon points="90.1,35.4 89.0,55.9 89.8,55.7"/><polygon points="90.1,35.4 89.3,35.8 89.0,55.9"/><polygon points="89.8,55.7 92.2,41.7 90.1,35.4"/><polygon points="99.0,25.1 101.1,19.9 94.1,20.9"/><polygon points="107.2,50.6 106.4,23.9 106.8,50.0"/><polygon points="103.6,19.8 105.5,18.6 105.3,20.5"/><polygon points="103.6,19.8 104.5,18.4 105.5,18.6"/><polygon points="100.6,19.9 104.5,18.4 103.6,19.8"/><polygon points="104.5,18.4 100.6,19.9 101.5,17.8"/><polygon points="103.6,19.8 105.3,20.5 105.5,25.9"/><polygon points="94.2,49.8 95.0,51.3 93.7,50.1"/><polygon points="103.6,19.8 105.5,25.9 102.8,25.0"/><polygon points="96.0,17.8 101.5,17.8 93.9,18.3"/><polygon points="93.7,50.1 93.4,24.5 94.2,49.8"/><polygon points="100.6,19.9 95.8,19.0 101.5,17.8"/><polygon points="95.8,19.0 93.9,18.3 101.5,17.8"/><polygon points="100.6,19.9 103.6,19.8 102.8,25.0"/><polygon points="99.9,50.4 96.1,51.3 96.4,49.5"/><polygon points="100.6,19.9 102.8,25.0 99.2,25.5"/><polygon points="96.1,51.3 95.0,51.3 94.2,49.8"/><polygon points="96.1,51.3 94.2,49.8 96.4,49.5"/><polygon points="101.5,17.8 103.6,18.2 104.5,18.4"/><polygon points="106.4,19.5 104.5,18.4 103.6,18.2"/><polygon points="96.0,17.8 103.6,18.2 101.5,17.8"/><polygon points="95.6,18.7 103.6,18.2 96.0,17.8"/><polygon points="101.1,19.9 104.0,19.7 103.6,18.2"/><polygon points="101.1,19.9 103.6,18.2 95.6,18.7"/><polygon points="104.0,19.7 106.4,19.5 103.6,18.2"/><polygon points="104.0,19.7 101.1,19.9 105.2,24.1"/><polygon points="101.1,19.9 102.6,24.8 105.2,24.1"/><polygon points="99.0,25.1 102.6,24.8 101.1,19.9"/><polygon points="106.0,51.5 107.2,50.6 105.3,51.3"/><polygon points="105.3,51.3 95.0,51.3 106.0,51.5"/><polygon points="95.0,51.3 96.1,51.3 106.0,51.5"/><polygon points="116.0,10.2 114.7,10.2 115.7,14.5"/><polygon points="115.7,14.5 116.3,10.2 116.0,10.2"/><polygon points="96.4,49.5 94.2,49.8 95.6,26.2"/><polygon points="115.7,14.5 118.7,10.2 116.7,10.2"/><polygon points="94.2,49.8 93.4,24.5 95.6,26.2"/><polygon points="115.7,14.5 116.7,10.2 116.3,10.2"/><polygon points="99.9,50.4 104.5,50.4 104.5,51.2"/><polygon points="99.9,50.4 104.5,51.2 96.1,51.3"/><polygon points="116.3,10.2 116.7,10.2 116.0,10.2"/><polygon points="104.5,50.4 99.9,50.4 102.8,49.3"/><polygon points="106.2,18.3 107.9,17.9 108.9,18.6"/><polygon points="114.3,25.1 115.7,14.5 112.5,23.6"/><polygon points="114.3,25.1 117.2,26.3 115.7,14.5"/><polygon points="115.7,14.5 117.2,26.3 118.7,10.2"/><polygon points="118.7,10.2 117.2,26.3 120.6,10.2"/><polygon points="107.9,17.9 109.4,18.6 108.9,18.6"/><polygon points="106.2,18.3 105.3,20.5 105.5,18.6"/><polygon points="99.2,25.5 102.8,25.0 99.9,50.4"/><polygon points="102.8,25.0 102.8,49.3 99.9,50.4"/><polygon points="109.4,18.6 109.7,19.7 108.9,18.6"/><polygon points="99.2,25.5 99.9,50.4 96.4,49.5"/><polygon points="108.9,18.6 107.0,20.6 106.2,18.3"/><polygon points="106.2,18.3 105.5,18.6 107.9,17.9"/><polygon points="102.8,49.3 105.5,25.9 104.5,50.4"/><polygon points="106.2,18.3 107.0,20.6 106.4,23.9"/><polygon points="108.9,18.6 108.7,21.6 107.0,20.6"/><polygon points="108.9,18.6 109.7,19.7 108.7,21.6"/><polygon points="109.4,25.8 108.7,21.6 109.7,19.7"/><polygon points="94.1,35.8 92.4,57.4 95.6,52.9"/><polygon points="106.2,18.3 106.4,23.9 105.3,20.5"/><polygon points="105.3,51.3 107.2,50.6 106.8,50.0"/><polygon points="109.4,18.6 107.9,17.9 105.5,18.6"/><polygon points="107.2,50.6 106.8,50.2 107.0,25.6"/><polygon points="105.5,18.6 106.4,19.5 109.4,18.6"/><polygon points="104.5,18.4 106.4,19.5 105.5,18.6"/><polygon points="107.2,50.6 107.0,25.6 106.4,23.9"/><polygon points="106.8,50.2 104.5,51.2 104.5,50.4"/><polygon points="107.9,23.7 109.3,24.3 109.4,18.6"/><polygon points="107.9,23.7 109.4,18.6 106.4,19.5"/><polygon points="107.9,23.7 106.4,19.5 104.0,19.7"/><polygon points="104.5,51.2 106.8,50.2 106.0,51.5"/><polygon points="146.5,20.5 146.6,10.2 145.4,10.2"/><polygon points="145.4,10.2 144.9,10.2 146.5,20.5"/><polygon points="143.8,10.2 142.4,10.2 145.8,34.9"/><polygon points="121.1,28.9 122.5,10.2 117.2,26.3"/><polygon points="144.9,10.2 143.8,10.2 146.5,20.5"/><polygon points="145.8,34.9 146.5,20.5 143.8,10.2"/><polygon points="156.7,61.5 146.6,10.2 146.5,20.5"/><polygon points="106.0,51.5 106.8,50.2 107.2,50.6"/><polygon points="106.0,51.5 96.1,51.3 104.5,51.2"/><polygon points="105.5,25.9 106.8,50.2 104.5,50.4"/><polygon points="106.4,29.2 107.0,25.6 106.8,50.2"/><polygon points="100.2,54.0 99.4,73.6 116.7,56.1"/><polygon points="117.6,47.4 119.2,46.0 118.8,33.5"/><polygon points="109.1,47.0 100.2,54.0 116.7,56.1"/><polygon points="120.4,51.5 114.3,48.5 116.7,56.1"/><polygon points="116.7,56.1 114.3,48.5 109.1,47.0"/><polygon points="106.2,32.2 109.1,47.0 112.8,40.6"/><polygon points="103.0,39.8 95.6,52.9 100.2,54.0"/><polygon points="95.6,52.9 99.4,73.6 100.2,54.0"/><polygon points="122.5,10.2 121.1,28.9 124.6,10.2"/><polygon points="125.5,10.2 126.3,28.2 126.7,10.2"/><polygon points="126.3,28.2 130.7,27.9 128.4,10.2"/><polygon points="128.4,10.2 126.7,10.2 126.3,28.2"/><polygon points="126.3,28.2 125.5,10.2 124.6,10.2"/><polygon points="127.9,29.7 126.3,28.2 122.7,30.1"/><polygon points="120.6,10.2 117.2,26.3 122.5,10.2"/><polygon points="118.8,30.5 120.6,31.3 121.1,28.9"/><polygon points="126.3,28.2 124.6,10.2 121.1,28.9"/><polygon points="120.6,31.3 122.7,30.1 121.1,28.9"/><polygon points="120.6,31.8 120.6,31.3 119.9,33.4"/><polygon points="118.8,30.5 118.8,33.5 120.6,31.3"/><polygon points="119.9,33.4 120.6,31.3 118.8,33.5"/><polygon points="129.4,10.2 128.4,10.2 130.7,27.9"/><polygon points="130.7,27.9 132.6,10.2 129.4,10.2"/><polygon points="127.9,29.7 130.7,27.9 126.3,28.2"/><polygon points="122.7,30.1 126.3,28.2 121.1,28.9"/><polygon points="127.9,29.7 133.6,29.9 130.7,27.9"/><polygon points="140.1,30.5 137.5,30.1 139.7,32.0"/><polygon points="140.5,10.2 145.8,34.9 142.4,10.2"/><polygon points="141.7,34.6 140.4,35.7 141.9,45.9"/><polygon points="137.5,30.1 130.7,27.9 133.6,29.9"/><polygon points="136.5,10.2 140.1,30.5 138.5,10.2"/><polygon points="141.7,34.6 145.8,34.9 140.1,30.5"/><polygon points="141.7,34.6 140.1,30.5 139.7,32.0"/><polygon points="138.5,10.2 140.1,30.5 140.5,10.2"/><polygon points="145.8,34.9 140.5,10.2 140.1,30.5"/><polygon points="135.0,10.2 136.2,27.7 136.5,10.2"/><polygon points="136.5,10.2 136.2,27.7 140.1,30.5"/><polygon points="136.2,27.7 135.0,10.2 132.6,10.2"/><polygon points="137.5,30.1 140.1,30.5 136.2,27.7"/><polygon points="130.7,27.9 136.2,27.7 132.6,10.2"/><polygon points="136.2,27.7 130.7,27.9 137.5,30.1"/><polygon points="139.7,32.0 140.4,35.7 141.7,34.6"/><polygon points="145.8,34.9 141.7,34.6 141.9,45.9"/><polygon points="145.8,34.9 141.9,45.9 143.2,49.3"/><polygon points="145.8,34.9 143.2,49.3 150.0,58.9"/><polygon points="129.7,38.8 130.6,36.5 126.9,36.2"/><polygon points="129.7,38.8 126.9,36.2 127.3,39.5"/><polygon points="118.8,33.5 119.2,46.0 119.9,33.4"/><polygon points="133.1,45.2 135.1,44.1 135.0,37.1"/><polygon points="146.5,20.5 153.2,56.8 156.7,61.5"/><polygon points="157.8,72.4 159.1,76.2 159.1,70.1"/><polygon points="160.2,72.2 159.1,70.1 159.1,76.2"/><polygon points="156.1,63.0 159.1,70.1 157.9,64.4"/><polygon points="156.7,61.5 157.9,64.4 158.9,62.5"/><polygon points="163.3,64.4 163.9,70.6 164.7,66.3"/><polygon points="164.7,66.3 165.4,70.3 165.4,64.6"/><polygon points="164.7,66.3 163.9,70.6 165.4,70.3"/><polygon points="159.1,70.1 160.2,72.2 163.9,70.6"/><polygon points="163.9,70.6 163.1,74.3 165.4,70.3"/><polygon points="163.1,74.3 163.9,70.6 160.2,72.2"/><polygon points="157.9,64.4 164.0,63.0 158.9,62.5"/><polygon points="159.1,70.1 163.3,64.4 157.9,64.4"/><polygon points="164.7,66.3 164.0,63.0 163.3,64.4"/><polygon points="164.7,66.3 165.4,64.6 164.0,63.0"/><polygon points="159.1,70.1 163.9,70.6 163.3,64.4"/><polygon points="163.3,64.4 164.0,63.0 157.9,64.4"/><polygon points="156.1,63.0 157.9,64.4 156.7,61.5"/><polygon points="159.1,70.1 156.1,63.0 157.8,72.4"/><polygon points="157.9,78.1 157.8,72.4 156.1,63.0"/><polygon points="143.2,49.3 149.4,71.6 150.0,58.9"/><polygon points="150.0,58.9 154.5,77.8 157.9,78.1"/><polygon points="150.0,58.9 157.9,78.1 153.2,56.8"/><polygon points="153.2,56.8 146.5,20.5 145.8,34.9"/><polygon points="150.0,58.9 153.2,56.8 145.8,34.9"/><polygon points="153.2,56.8 156.1,63.0 156.7,61.5"/><polygon points="156.1,63.0 153.2,56.8 157.9,78.1"/><polygon points="139.7,32.0 137.5,30.1 138.1,30.8"/><polygon points="133.6,29.9 138.1,30.8 137.5,30.1"/><polygon points="139.8,32.6 139.7,32.0 138.1,30.8"/><polygon points="138.1,30.8 122.9,30.9 136.7,31.9"/><polygon points="122.9,30.9 133.6,29.9 127.9,29.7"/><polygon points="133.6,29.9 122.9,30.9 138.1,30.8"/><polygon points="122.9,30.9 127.9,29.7 122.7,30.1"/><polygon points="120.6,31.8 122.9,30.9 122.7,30.1"/><polygon points="120.6,31.8 122.7,30.1 120.6,31.3"/><polygon points="121.1,33.2 122.0,34.7 122.9,30.9"/><polygon points="122.9,30.9 120.6,31.8 121.1,33.2"/><polygon points="120.6,31.8 119.9,33.4 120.0,36.4"/><polygon points="122.0,34.7 137.4,34.6 136.7,31.9"/><polygon points="136.7,31.9 122.9,30.9 122.0,34.7"/><polygon points="126.9,36.2 125.0,36.8 127.3,39.5"/><polygon points="125.0,41.9 127.3,39.5 125.0,36.8"/><polygon points="124.5,39.5 123.9,40.4 125.0,36.8"/><polygon points="123.9,40.4 125.0,41.9 125.0,36.8"/><polygon points="119.6,45.9 120.0,36.4 119.9,33.4"/><polygon points="119.9,33.4 119.2,46.0 119.6,45.9"/><polygon points="127.3,36.1 126.7,37.3 125.0,36.8"/><polygon points="130.1,36.5 126.7,37.3 127.3,36.1"/><polygon points="130.6,36.5 130.1,36.5 127.3,36.1"/><polygon points="130.6,36.5 127.3,36.1 126.9,36.2"/><polygon points="126.9,36.2 127.3,36.1 125.0,36.8"/><polygon points="132.8,42.2 129.7,38.8 127.3,39.5"/><polygon points="135.0,37.1 129.7,38.8 132.8,42.2"/><polygon points="125.0,36.8 126.7,37.3 124.5,39.5"/><polygon points="130.6,36.5 134.1,36.1 130.1,36.5"/><polygon points="130.6,36.5 129.7,38.8 135.0,37.1"/><polygon points="130.6,36.5 135.0,37.1 133.1,36.1"/><polygon points="130.6,36.5 133.1,36.1 134.1,36.1"/><polygon points="123.5,47.0 122.9,47.2 121.9,47.8"/><polygon points="119.2,46.0 120.7,49.1 119.6,45.9"/><polygon points="121.1,47.5 119.6,45.9 120.7,47.4"/><polygon points="120.7,47.4 121.9,47.8 121.1,47.5"/><polygon points="119.2,46.0 117.6,47.4 120.7,49.1"/><polygon points="117.6,47.4 120.4,51.5 120.7,49.1"/><polygon points="123.5,47.0 125.7,45.7 124.4,44.3"/><polygon points="124.4,49.3 127.8,45.3 125.7,45.7"/><polygon points="123.5,47.0 123.5,45.9 122.9,47.2"/><polygon points="127.8,45.3 127.3,39.5 125.0,41.9"/><polygon points="124.4,44.3 125.7,45.7 125.0,41.9"/><polygon points="124.4,44.3 125.0,41.9 123.9,40.4"/><polygon points="123.5,45.9 124.4,44.3 123.9,40.4"/><polygon points="123.5,47.0 124.4,44.3 123.5,45.9"/><polygon points="133.1,45.2 132.8,42.2 127.8,45.3"/><polygon points="125.0,41.9 125.7,45.7 127.8,45.3"/><polygon points="132.8,42.2 127.3,39.5 127.8,45.3"/><polygon points="133.1,45.2 132.2,49.8 135.8,48.7"/><polygon points="133.1,45.2 135.8,48.7 134.7,46.6"/><polygon points="124.4,49.3 127.3,49.8 127.8,45.3"/><polygon points="132.2,49.8 133.1,45.2 127.8,45.3"/><polygon points="120.6,31.8 120.0,36.4 121.1,33.2"/><polygon points="120.0,36.4 120.0,40.0 122.0,34.7"/><polygon points="120.0,36.4 122.0,34.7 121.1,33.2"/><polygon points="125.0,41.7 126.7,37.3 128.2,41.8"/><polygon points="125.0,41.7 124.5,39.5 126.7,37.3"/><polygon points="123.9,40.4 125.0,41.7 123.5,45.9"/><polygon points="120.0,36.4 120.0,45.1 120.0,40.0"/><polygon points="123.9,40.4 124.5,39.5 125.0,41.7"/><polygon points="122.9,39.0 122.0,34.7 121.6,40.6"/><polygon points="122.0,34.7 120.0,40.0 121.6,40.6"/><polygon points="120.0,40.0 120.0,45.1 121.6,40.6"/><polygon points="122.9,47.2 125.7,46.0 124.5,47.5"/><polygon points="123.5,45.9 125.7,46.0 122.9,47.2"/><polygon points="128.2,41.8 133.1,46.7 125.7,46.0"/><polygon points="125.0,41.7 128.2,41.8 125.7,46.0"/><polygon points="123.5,45.9 125.0,41.7 125.7,46.0"/><polygon points="120.0,45.1 120.0,36.4 119.6,45.9"/><polygon points="121.6,40.6 123.8,44.8 122.9,39.0"/><polygon points="121.1,47.5 121.9,47.8 122.9,47.2"/><polygon points="124.5,47.5 121.1,47.5 122.9,47.2"/><polygon points="121.6,40.6 120.0,45.1 121.5,47.0"/><polygon points="121.6,40.6 121.5,47.0 123.8,44.8"/><polygon points="120.0,45.1 121.1,47.5 121.5,47.0"/><polygon points="120.0,45.1 119.6,45.9 121.1,47.5"/><polygon points="133.5,41.4 135.2,45.3 133.1,46.7"/><polygon points="133.5,41.4 133.1,46.7 128.2,41.8"/><polygon points="133.1,46.7 124.5,47.5 125.7,46.0"/><polygon points="133.1,47.5 124.5,47.5 133.1,46.7"/><polygon points="124.5,47.5 133.1,47.5 121.1,47.5"/><polygon points="140.4,35.7 139.7,32.0 139.8,32.6"/><polygon points="140.4,35.7 139.8,32.6 140.3,38.4"/><polygon points="135.0,37.1 135.1,44.1 135.8,40.0"/><polygon points="135.6,39.4 133.5,37.6 134.1,36.1"/><polygon points="135.0,37.1 135.6,39.4 134.1,36.1"/><polygon points="135.0,37.1 134.1,36.1 133.1,36.1"/><polygon points="130.1,36.5 134.1,36.1 133.5,37.6"/><polygon points="135.0,37.1 135.8,40.0 135.6,39.4"/><polygon points="135.8,44.8 135.2,45.3 135.6,39.4"/><polygon points="126.7,37.3 130.1,36.5 133.5,37.6"/><polygon points="133.5,37.6 128.2,41.8 126.7,37.3"/><polygon points="135.0,37.1 132.8,42.2 133.1,45.2"/><polygon points="135.1,44.1 133.1,45.2 134.7,46.6"/><polygon points="135.8,40.0 135.1,44.1 135.6,39.4"/><polygon points="135.6,39.4 135.1,44.1 135.8,44.8"/><polygon points="135.1,44.1 134.7,46.6 135.8,44.8"/><polygon points="136.9,47.2 135.8,44.8 134.7,46.6"/><polygon points="140.4,44.4 140.4,35.7 140.1,45.7"/><polygon points="136.9,47.2 138.3,48.5 139.6,47.2"/><polygon points="136.9,47.2 135.8,48.7 138.3,48.5"/><polygon points="135.8,48.7 136.9,47.2 134.7,46.6"/><polygon points="140.4,47.8 140.4,44.4 139.6,47.2"/><polygon points="140.4,47.8 139.6,47.2 138.3,48.5"/><polygon points="139.6,47.2 140.4,44.4 140.1,45.7"/><polygon points="140.4,47.8 143.2,49.3 141.9,45.9"/><polygon points="140.4,44.4 140.4,47.8 141.9,45.9"/><polygon points="141.9,45.9 140.4,35.7 140.4,44.4"/><polygon points="139.3,35.3 139.8,32.6 138.1,30.8"/><polygon points="138.1,30.8 136.7,31.9 139.3,35.3"/><polygon points="139.3,35.3 140.3,38.4 139.8,32.6"/><polygon points="135.6,39.4 135.2,45.3 133.5,41.4"/><polygon points="133.5,37.6 133.5,41.4 128.2,41.8"/><polygon points="135.6,39.4 133.5,41.4 133.5,37.6"/><polygon points="140.1,45.7 140.4,35.7 140.3,38.4"/><polygon points="136.7,31.9 137.4,34.6 139.3,35.3"/><polygon points="139.3,35.3 139.3,40.4 140.3,38.4"/><polygon points="139.3,35.3 137.4,34.6 137.5,37.9"/><polygon points="139.3,35.3 137.5,37.9 139.3,40.4"/><polygon points="137.4,34.6 122.9,39.0 137.5,37.9"/><polygon points="136.4,43.4 137.5,37.9 122.9,39.0"/><polygon points="122.9,39.0 137.4,34.6 122.0,34.7"/><polygon points="139.3,40.4 140.1,45.7 140.3,38.4"/><polygon points="123.8,44.8 121.5,47.0 138.6,47.0"/><polygon points="136.4,47.5 133.1,47.5 133.1,46.7"/><polygon points="133.1,47.5 136.4,47.5 138.6,47.8"/><polygon points="136.9,47.2 135.2,45.3 135.8,44.8"/><polygon points="136.4,43.4 122.9,39.0 123.8,44.8"/><polygon points="136.4,43.4 139.3,40.4 137.5,37.9"/><polygon points="136.9,47.2 139.6,47.2 138.6,47.8"/><polygon points="138.6,47.8 136.4,47.5 136.9,47.2"/><polygon points="140.1,45.7 138.6,47.8 139.6,47.2"/><polygon points="135.2,45.3 136.9,47.2 136.4,47.5"/><polygon points="133.1,46.7 135.2,45.3 136.4,47.5"/><polygon points="138.6,47.0 140.1,45.7 139.3,40.4"/><polygon points="138.6,47.0 138.6,47.8 140.1,45.7"/><polygon points="136.4,43.4 138.6,47.0 139.3,40.4"/><polygon points="138.6,47.0 133.1,47.5 138.6,47.8"/><polygon points="136.4,43.4 123.8,44.8 138.6,47.0"/><polygon points="138.6,47.0 121.1,47.5 133.1,47.5"/><polygon points="138.6,47.0 121.5,47.0 121.1,47.5"/><polygon points="120.7,49.1 121.9,47.8 120.7,47.4"/><polygon points="120.7,47.4 119.6,45.9 120.7,49.1"/><polygon points="124.4,49.3 123.5,47.0 121.9,47.8"/><polygon points="124.4,49.3 125.7,45.7 123.5,47.0"/><polygon points="120.4,51.5 124.4,49.3 120.7,49.1"/><polygon points="124.4,49.3 121.9,47.8 120.7,49.1"/><polygon points="114.3,48.5 120.4,51.5 117.6,47.4"/><polygon points="140.4,47.8 139.0,51.3 143.2,49.3"/><polygon points="140.4,47.8 138.3,48.5 139.0,51.3"/><polygon points="135.8,48.7 139.0,51.3 138.3,48.5"/><polygon points="116.7,56.1 139.0,51.3 132.2,49.8"/><polygon points="135.8,48.7 132.2,49.8 139.0,51.3"/><polygon points="124.4,49.3 120.4,51.5 127.3,49.8"/><polygon points="127.3,49.8 116.7,56.1 132.2,49.8"/><polygon points="127.3,49.8 120.4,51.5 116.7,56.1"/><polygon points="127.8,45.3 127.3,49.8 132.2,49.8"/><polygon points="116.7,56.1 99.4,73.6 145.8,76.3"/><polygon points="127.9,118.2 145.8,76.3 99.4,73.6"/><polygon points="145.8,76.3 149.4,71.6 143.2,49.3"/><polygon points="143.2,49.3 139.0,51.3 145.8,76.3"/><polygon points="139.0,51.3 116.7,56.1 145.8,76.3"/><polygon points="149.4,71.6 145.8,76.3 150.6,78.1"/><polygon points="90.0,78.9 93.4,101.6 94.1,101.9"/><polygon points="90.0,78.9 94.1,101.9 90.5,78.8"/><polygon points="90.0,78.9 90.5,78.8 89.0,55.9"/><polygon points="92.4,78.2 92.4,57.4 89.8,55.7"/><polygon points="90.5,78.8 92.4,78.2 89.8,55.7"/><polygon points="90.5,78.8 94.2,91.3 92.4,78.2"/><polygon points="94.1,101.9 94.2,91.3 90.5,78.8"/><polygon points="94.1,101.9 96.0,103.5 94.2,91.3"/><polygon points="94.1,101.9 99.8,121.3 96.0,103.5"/><polygon points="98.5,122.5 99.8,121.3 94.1,101.9"/><polygon points="98.1,122.5 98.5,122.5 94.1,101.9"/><polygon points="93.4,101.6 98.1,122.5 94.1,101.9"/><polygon points="96.0,103.5 101.8,121.1 94.2,91.3"/><polygon points="96.0,103.5 99.8,121.3 101.8,121.1"/><polygon points="101.8,121.1 99.8,121.3 106.0,142.9"/><polygon points="106.0,142.9 107.5,141.1 101.8,121.1"/><polygon points="99.8,121.3 98.5,122.5 106.0,142.9"/><polygon points="106.0,142.9 98.5,122.5 104.7,143.3"/><polygon points="101.8,121.1 95.4,80.1 94.2,91.3"/><polygon points="101.8,121.1 106.2,123.3 95.4,80.1"/><polygon points="106.2,123.3 107.5,141.1 111.9,143.0"/><polygon points="111.9,143.0 144.9,141.9 106.2,123.3"/><polygon points="107.5,141.1 106.2,123.3 101.8,121.1"/><polygon points="99.4,73.6 95.4,80.1 106.2,123.3"/><polygon points="99.4,73.6 95.6,52.9 95.4,80.1"/><polygon points="95.6,52.9 92.4,57.4 95.4,80.1"/><polygon points="92.4,57.4 92.4,78.2 95.4,80.1"/><polygon points="92.4,78.2 94.2,91.3 95.4,80.1"/><polygon points="163.1,74.3 160.2,72.2 160.2,77.0"/><polygon points="159.1,76.2 160.1,79.2 160.2,77.0"/><polygon points="160.2,72.2 159.1,76.2 160.2,77.0"/><polygon points="161.4,79.2 160.2,77.0 160.1,79.2"/><polygon points="162.4,82.6 161.4,79.2 160.1,79.2"/><polygon points="161.2,85.3 162.4,82.6 160.1,79.2"/><polygon points="161.2,85.3 161.3,87.7 162.4,82.6"/><polygon points="163.1,74.3 160.2,77.0 161.4,79.2"/><polygon points="160.1,79.2 165.4,113.3 161.2,85.3"/><polygon points="163.1,74.3 161.4,79.2 162.4,82.6"/><polygon points="165.4,113.3 161.3,87.7 161.2,85.3"/><polygon points="157.9,78.1 154.5,77.8 155.5,87.3"/><polygon points="149.4,71.6 154.5,77.8 150.0,58.9"/><polygon points="154.5,77.8 149.4,71.6 150.6,78.1"/><polygon points="154.5,77.8 150.6,78.1 155.5,87.3"/><polygon points="159.1,76.2 157.8,72.4 157.9,78.1"/><polygon points="160.1,79.2 159.1,76.2 157.9,78.1"/><polygon points="160.1,79.2 157.9,78.1 162.4,99.8"/><polygon points="157.9,78.1 159.0,91.4 162.4,99.8"/><polygon points="165.4,113.3 160.1,79.2 162.4,99.8"/><polygon points="159.0,91.4 157.9,78.1 155.5,87.3"/><polygon points="155.5,87.3 158.5,90.4 159.0,91.4"/><polygon points="152.3,85.6 154.7,87.3 155.5,87.3"/><polygon points="150.6,78.1 152.3,85.6 155.5,87.3"/><polygon points="154.7,87.3 154.5,86.9 158.5,90.4"/><polygon points="150.6,78.1 145.8,76.3 152.3,85.6"/><polygon points="158.5,90.4 155.5,87.3 154.7,87.3"/><polygon points="152.8,87.2 154.5,86.9 154.7,87.3"/><polygon points="152.3,85.6 145.8,76.3 150.4,87.5"/><polygon points="154.7,87.3 152.3,85.6 152.8,87.2"/><polygon points="154.5,86.9 152.8,87.2 151.1,88.0"/><polygon points="151.1,88.0 152.2,86.6 154.5,86.9"/><polygon points="145.8,76.3 127.9,118.2 150.4,87.5"/><polygon points="150.4,87.5 151.1,88.0 152.8,87.2"/><polygon points="151.1,88.0 150.4,87.5 149.8,91.3"/><polygon points="152.3,85.6 150.4,87.5 152.8,87.2"/><polygon points="150.4,87.5 147.9,94.0 149.8,91.3"/><polygon points="147.9,94.0 150.4,87.5 127.9,118.2"/><polygon points="149.8,91.3 147.7,102.7 148.3,101.2"/><polygon points="144.9,141.9 144.9,146.8 146.0,126.6"/><polygon points="146.0,123.3 146.0,126.6 147.2,114.1"/><polygon points="127.9,118.2 99.4,73.6 106.2,123.3"/><polygon points="147.9,94.0 127.9,118.2 145.6,113.0"/><polygon points="144.9,126.3 127.9,118.2 144.9,141.9"/><polygon points="106.2,123.3 144.9,141.9 127.9,118.2"/><polygon points="147.9,94.0 145.6,113.0 149.8,91.3"/><polygon points="145.6,113.0 146.0,123.3 147.2,114.1"/><polygon points="145.6,113.0 147.2,114.1 146.9,112.9"/><polygon points="146.0,123.3 145.6,113.0 144.9,126.3"/><polygon points="144.9,126.3 146.0,126.6 146.0,123.3"/><polygon points="127.9,118.2 144.9,126.3 145.6,113.0"/><polygon points="144.9,141.9 146.0,126.6 144.9,126.3"/><polygon points="149.8,91.3 145.6,113.0 147.7,102.7"/><polygon points="147.7,102.7 147.2,114.1 148.3,101.2"/><polygon points="146.9,112.9 147.2,114.1 147.7,102.7"/><polygon points="146.9,112.9 147.7,102.7 145.6,113.0"/><polygon points="151.0,235.6 152.4,230.4 151.6,86.8"/><polygon points="145.0,196.8 145.0,197.0 145.0,128.4"/><polygon points="146.1,241.8 146.2,242.3 146.2,241.2"/><polygon points="149.9,244.7 150.5,243.6 150.2,88.2"/><polygon points="146.5,244.7 147.1,245.1 146.9,239.0"/><polygon points="154.5,86.5 157.7,212.8 157.4,89.5"/><polygon points="153.8,86.5 157.7,212.8 154.5,86.5"/><polygon points="152.4,230.4 157.7,212.8 153.8,86.5"/><polygon points="147.1,245.1 148.1,245.8 147.7,236.1"/><polygon points="146.7,109.9 147.7,236.1 147.5,100.8"/><polygon points="146.5,112.8 147.7,236.1 146.7,109.9"/><polygon points="145.5,122.2 147.7,236.1 146.5,112.8"/><polygon points="145.1,197.8 147.7,236.1 145.5,122.2"/><polygon points="150.5,243.6 150.5,241.9 150.5,87.4"/><polygon points="149.0,245.2 149.9,244.7 149.0,90.6"/><polygon points="148.1,245.8 149.0,245.2 148.5,93.8"/><polygon points="158.1,90.1 158.5,209.7 158.1,90.2"/><polygon points="157.7,212.8 158.5,209.7 158.1,90.1"/><polygon points="143.9,160.6 144.5,183.0 144.4,151.5"/><polygon points="143.9,166.2 144.5,183.0 143.9,160.6"/><polygon points="143.9,170.3 144.5,183.0 143.9,166.2"/><polygon points="161.8,99.4 163.6,173.9 162.8,103.7"/><polygon points="159.5,93.4 163.6,173.9 161.8,99.4"/><polygon points="159.3,204.8 163.6,173.9 159.5,93.4"/><polygon points="166.0,142.7 165.6,122.7 165.8,151.7"/><polygon points="166.3,131.0 165.6,122.7 166.0,142.7"/><polygon points="163.6,173.9 164.8,161.4 164.7,112.8"/><polygon points="165.3,119.8 165.8,151.7 165.6,122.7"/><polygon points="164.8,161.4 165.8,151.7 165.3,119.8"/><polygon points="143.9,160.6 143.9,163.5 143.9,166.2"/><polygon points="149.0,90.6 148.5,93.8 149.0,245.2"/><polygon points="153.8,86.5 151.6,86.8 152.4,230.4"/><polygon points="150.5,87.4 150.2,88.2 150.5,243.6"/><polygon points="145.5,122.2 145.0,197.0 145.1,197.8"/><polygon points="145.5,122.2 145.0,128.4 145.0,197.0"/><polygon points="146.9,239.0 146.2,242.3 146.5,244.7"/><polygon points="146.9,239.0 146.2,241.2 146.2,242.3"/><polygon points="158.1,90.1 157.4,89.5 157.7,212.8"/><polygon points="147.7,236.1 146.9,239.0 147.1,245.1"/><polygon points="151.6,86.8 150.9,236.0 151.0,235.6"/><polygon points="151.6,86.8 150.8,236.5 150.9,236.0"/><polygon points="151.6,86.8 150.5,241.9 150.8,236.5"/><polygon points="151.6,86.8 150.5,87.4 150.5,241.9"/><polygon points="148.5,93.8 147.7,236.1 148.1,245.8"/><polygon points="148.5,93.8 147.5,100.8 147.7,236.1"/><polygon points="145.0,128.4 145.0,196.6 145.0,196.8"/><polygon points="145.0,128.4 144.5,183.0 145.0,196.6"/><polygon points="145.0,128.4 144.4,151.5 144.5,183.0"/><polygon points="150.2,88.2 149.0,90.6 149.9,244.7"/><polygon points="159.5,93.4 159.0,207.0 159.3,204.8"/><polygon points="159.5,93.4 158.8,208.1 159.0,207.0"/><polygon points="158.8,208.1 158.5,209.7 158.8,208.4"/><polygon points="159.5,93.4 158.5,209.7 158.8,208.1"/><polygon points="159.5,93.4 158.1,90.2 158.5,209.7"/><polygon points="164.7,112.8 162.8,103.7 163.6,173.9"/><polygon points="165.3,119.8 164.7,112.8 164.8,161.4"/><polygon points="143.9,170.3 143.9,166.2 144.9,159.7"/><polygon points="143.9,170.3 144.9,159.7 145.0,169.4"/><polygon points="143.9,166.2 143.9,163.5 144.9,153.1"/><polygon points="143.9,166.2 144.9,153.1 144.9,159.7"/><polygon points="143.9,163.5 143.9,160.6 144.9,146.8"/><polygon points="143.9,163.5 144.9,146.8 144.9,153.1"/><polygon points="157.7,212.8 152.4,230.4 151.8,233.0"/><polygon points="157.7,212.8 151.8,233.0 160.0,205.8"/><polygon points="144.5,183.0 143.9,170.3 145.0,169.4"/><polygon points="144.5,183.0 145.0,169.4 145.4,192.5"/><polygon points="145.0,196.8 145.0,196.6 145.0,196.8"/><polygon points="145.0,196.6 144.5,183.0 145.4,192.5"/><polygon points="145.0,196.6 145.4,192.5 145.0,196.8"/><polygon points="146.1,241.8 146.2,241.2 146.5,239.3"/><polygon points="146.1,241.8 146.5,239.3 146.1,242.3"/><polygon points="159.3,204.8 159.0,207.0 159.0,208.0"/><polygon points="146.2,242.3 146.1,241.8 146.1,242.3"/><polygon points="146.2,242.3 146.1,242.3 146.6,244.4"/><polygon points="150.5,243.6 149.9,244.7 149.8,243.7"/><polygon points="150.5,243.6 149.8,243.7 150.7,243.0"/><polygon points="146.2,241.2 146.9,239.0 146.5,239.3"/><polygon points="146.9,239.0 147.7,236.1 147.7,235.0"/><polygon points="146.9,239.0 147.7,235.0 146.5,239.3"/><polygon points="147.7,236.1 145.1,197.8 145.0,196.8"/><polygon points="147.7,236.1 145.0,196.8 147.7,235.0"/><polygon points="150.5,241.9 150.5,243.6 150.7,243.0"/><polygon points="150.8,236.5 150.5,241.9 150.7,243.0"/><polygon points="150.8,236.5 150.7,243.0 151.0,235.8"/><polygon points="163.6,173.9 159.3,204.8 159.0,208.0"/><polygon points="158.5,209.7 157.7,212.8 160.0,205.8"/><polygon points="158.5,209.7 160.0,205.8 159.0,208.0"/><polygon points="145.1,197.8 145.0,197.0 145.0,196.8"/><polygon points="152.4,230.4 151.0,235.6 151.0,235.8"/><polygon points="152.4,230.4 151.0,235.8 151.8,233.0"/><polygon points="150.9,236.0 150.8,236.5 151.0,235.8"/><polygon points="151.0,235.6 150.9,236.0 151.0,235.8"/><polygon points="145.0,197.0 145.0,196.8 145.0,196.8"/><polygon points="158.8,208.1 158.8,208.4 159.0,208.0"/><polygon points="159.0,207.0 158.8,208.1 159.0,208.0"/><polygon points="158.8,208.4 158.5,209.7 159.0,208.0"/><polygon points="149.9,244.7 149.0,245.2 148.1,245.5"/><polygon points="149.9,244.7 148.1,245.5 149.8,243.7"/><polygon points="147.1,245.1 146.5,244.7 146.6,244.4"/><polygon points="147.1,245.1 146.6,244.4 148.1,245.5"/><polygon points="148.1,245.8 147.1,245.1 148.1,245.5"/><polygon points="146.5,244.7 146.2,242.3 146.6,244.4"/><polygon points="149.0,245.2 148.1,245.8 148.1,245.5"/><polygon points="157.4,89.5 158.1,90.1 158.5,90.4"/><polygon points="157.4,89.5 158.5,90.4 154.5,86.9"/><polygon points="154.5,86.5 157.4,89.5 154.5,86.9"/><polygon points="147.5,100.8 148.5,93.8 149.8,91.3"/><polygon points="147.5,100.8 149.8,91.3 148.3,101.2"/><polygon points="159.5,93.4 161.8,99.4 162.4,99.8"/><polygon points="159.5,93.4 162.4,99.8 159.0,91.4"/><polygon points="153.8,86.5 154.5,86.5 154.5,86.9"/><polygon points="153.8,86.5 154.5,86.9 152.2,86.6"/><polygon points="158.1,90.1 158.1,90.2 159.0,91.4"/><polygon points="158.1,90.1 159.0,91.4 158.5,90.4"/><polygon points="150.5,87.4 151.6,86.8 152.2,86.6"/><polygon points="150.5,87.4 152.2,86.6 151.1,88.0"/><polygon points="150.2,88.2 150.5,87.4 151.1,88.0"/><polygon points="150.2,88.2 151.1,88.0 149.8,91.3"/><polygon points="151.6,86.8 153.8,86.5 152.2,86.6"/><polygon points="149.0,90.6 150.2,88.2 149.8,91.3"/><polygon points="148.5,93.8 149.0,90.6 149.8,91.3"/><polygon points="158.1,90.2 159.5,93.4 159.0,91.4"/><polygon points="161.8,99.4 162.8,103.7 162.4,99.8"/><polygon points="145.5,122.2 146.5,112.8 147.2,114.1"/><polygon points="145.5,122.2 147.2,114.1 146.0,126.6"/><polygon points="144.4,151.5 145.0,128.4 146.0,126.6"/><polygon points="145.0,128.4 145.5,122.2 146.0,126.6"/><polygon points="146.7,109.9 147.5,100.8 148.3,101.2"/><polygon points="146.7,109.9 148.3,101.2 147.2,114.1"/><polygon points="146.5,112.8 146.7,109.9 147.2,114.1"/><polygon points="143.9,160.6 144.4,151.5 146.0,126.6"/><polygon points="143.9,160.6 146.0,126.6 144.9,146.8"/><polygon points="162.8,103.7 164.7,112.8 165.4,113.3"/><polygon points="162.8,103.7 165.4,113.3 162.4,99.8"/><polygon points="164.7,112.8 165.3,119.8 165.4,113.3"/><polygon points="160.2,204.8 160.1,204.9 160.1,203.9"/><polygon points="158.7,62.4 160.1,203.9 160.1,204.9"/><polygon points="157.3,61.1 158.7,62.4 160.1,204.9"/><polygon points="156.8,60.9 157.3,61.1 160.1,204.9"/><polygon points="155.8,219.7 156.8,60.9 160.1,204.9"/><polygon points="147.0,210.3 147.5,13.7 147.7,210.7"/><polygon points="94.6,51.2 95.5,51.2 96.8,116.7"/><polygon points="94.5,51.1 94.6,51.2 96.8,116.7"/><polygon points="93.6,49.5 94.5,51.1 96.8,116.7"/><polygon points="93.4,101.6 93.5,37.7 93.6,49.5"/><polygon points="93.4,101.6 93.6,49.5 96.8,116.7"/><polygon points="147.3,238.2 147.3,237.3 147.6,239.3"/><polygon points="165.8,116.6 165.2,164.6 164.8,168.1"/><polygon points="165.8,116.6 164.8,168.1 164.5,104.6"/><polygon points="166.1,113.3 165.8,116.6 164.5,104.6"/><polygon points="163.4,75.0 163.5,62.9 164.2,73.7"/><polygon points="147.6,239.3 147.6,236.1 148.3,240.3"/><polygon points="164.4,172.6 164.5,104.6 164.8,168.1"/><polygon points="110.7,24.5 111.2,24.3 111.2,162.1"/><polygon points="109.8,24.6 110.7,24.5 111.2,162.1"/><polygon points="109.5,24.0 109.8,24.6 111.2,162.1"/><polygon points="108.3,153.9 109.5,24.0 111.2,162.1"/><polygon points="90.0,20.0 90.3,18.9 90.5,22.7"/><polygon points="93.0,18.0 93.3,24.7 93.4,101.6"/><polygon points="92.0,92.3 93.0,18.0 93.4,101.6"/><polygon points="90.5,22.7 90.7,18.3 90.9,24.9"/><polygon points="89.2,44.8 89.3,35.8 89.5,68.6"/><polygon points="89.0,56.1 89.2,44.8 89.5,68.6"/><polygon points="93.9,18.7 93.9,18.7 93.7,23.1"/><polygon points="93.9,18.7 93.7,23.1 93.3,24.7"/><polygon points="93.9,18.7 93.3,24.7 93.0,18.0"/><polygon points="93.9,18.7 94.1,19.5 94.3,20.8"/><polygon points="93.7,23.1 93.9,18.7 94.3,20.8"/><polygon points="132.5,207.8 132.8,10.2 133.0,208.1"/><polygon points="135.8,209.1 138.1,10.2 143.7,209.2"/><polygon points="116.0,10.2 116.1,10.2 116.2,175.0"/><polygon points="115.7,10.2 116.0,10.2 116.2,175.0"/><polygon points="115.5,10.2 115.7,10.2 116.2,175.0"/><polygon points="115.3,10.2 115.5,10.2 116.2,175.0"/><polygon points="115.0,10.2 115.3,10.2 116.2,175.0"/><polygon points="114.9,10.2 115.0,10.2 116.2,175.0"/><polygon points="114.4,10.2 114.9,10.2 116.2,175.0"/><polygon points="114.3,10.2 114.4,10.2 116.2,175.0"/><polygon points="113.4,15.7 114.3,10.2 116.2,175.0"/><polygon points="112.1,23.0 113.4,15.7 116.2,175.0"/><polygon points="111.2,162.1 112.1,23.0 116.2,175.0"/><polygon points="124.3,10.2 125.7,10.2 125.9,198.3"/><polygon points="123.2,10.2 124.3,10.2 125.9,198.3"/><polygon points="122.5,10.2 123.2,10.2 125.9,198.3"/><polygon points="121.6,10.2 122.5,10.2 125.9,198.3"/><polygon points="119.4,10.2 121.6,10.2 125.9,198.3"/><polygon points="117.0,10.2 119.4,10.2 125.9,198.3"/><polygon points="116.5,10.2 117.0,10.2 125.9,198.3"/><polygon points="116.4,10.2 116.5,10.2 125.9,198.3"/><polygon points="116.2,10.2 116.4,10.2 125.9,198.3"/><polygon points="116.2,175.0 116.2,10.2 125.9,198.3"/><polygon points="125.9,198.3 127.3,10.2 127.5,201.6"/><polygon points="146.2,209.3 146.8,10.2 147.0,210.3"/><polygon points="129.2,10.2 131.1,10.2 131.7,206.9"/><polygon points="127.5,201.6 129.2,10.2 131.7,206.9"/><polygon points="160.7,201.8 160.7,62.6 160.8,200.9"/><polygon points="148.7,234.5 149.4,232.7 149.5,240.8"/><polygon points="148.6,240.6 148.7,234.5 149.5,240.8"/><polygon points="147.9,212.2 149.4,23.3 149.4,232.7"/><polygon points="164.3,63.2 165.1,64.2 165.2,70.7"/><polygon points="164.2,73.7 164.3,63.2 165.2,70.7"/><polygon points="165.4,64.8 165.4,67.6 165.2,70.7"/><polygon points="165.4,64.8 165.2,70.7 165.1,64.2"/><polygon points="90.9,24.9 91.8,18.0 92.0,92.3"/><polygon points="90.2,29.6 90.9,24.9 92.0,92.3"/><polygon points="90.0,78.8 90.2,29.6 92.0,92.3"/><polygon points="107.5,21.6 108.0,21.7 108.3,153.9"/><polygon points="107.3,21.7 107.5,21.6 108.3,153.9"/><polygon points="106.9,22.8 107.3,21.7 108.3,153.9"/><polygon points="106.9,49.4 106.9,22.8 108.3,153.9"/><polygon points="106.2,50.6 106.9,49.4 108.3,153.9"/><polygon points="105.9,50.9 106.2,50.6 108.3,153.9"/><polygon points="105.2,51.3 105.9,50.9 108.3,153.9"/><polygon points="104.5,143.8 105.2,51.3 108.3,153.9"/><polygon points="161.5,195.4 161.5,87.5 162.5,186.3"/><polygon points="165.8,117.0 165.8,117.0 166.5,151.8"/><polygon points="165.8,116.6 165.8,117.0 166.5,151.8"/><polygon points="165.2,164.6 165.8,116.6 166.5,151.8"/><polygon points="167.0,130.9 166.8,136.9 166.6,126.6"/><polygon points="166.5,151.3 166.6,126.6 166.8,136.9"/><polygon points="129.2,10.2 127.5,201.6 127.3,10.2"/><polygon points="146.8,10.2 146.2,209.3 143.7,209.2"/><polygon points="146.8,10.2 143.7,209.2 138.1,10.2"/><polygon points="160.7,62.6 160.7,201.8 160.1,203.9"/><polygon points="160.7,62.6 160.1,203.9 158.7,62.4"/><polygon points="116.2,10.2 116.2,175.0 116.1,10.2"/><polygon points="156.8,60.9 155.8,219.7 151.8,233.1"/><polygon points="151.8,233.1 151.8,236.2 151.8,238.1"/><polygon points="151.8,233.1 151.8,238.1 151.4,239.1"/><polygon points="156.8,60.9 151.8,233.1 151.4,239.1"/><polygon points="156.8,60.9 151.4,239.1 151.1,240.2"/><polygon points="156.8,60.9 151.1,240.2 150.6,240.6"/><polygon points="156.8,60.9 150.6,240.6 149.5,240.8"/><polygon points="156.8,60.9 149.5,240.8 149.4,232.7"/><polygon points="156.8,60.9 149.4,232.7 149.4,23.3"/><polygon points="148.7,234.5 148.6,240.6 148.3,240.3"/><polygon points="148.7,234.5 148.3,240.3 147.6,236.1"/><polygon points="109.5,24.0 108.3,153.9 108.0,21.7"/><polygon points="147.6,236.1 147.6,239.3 147.3,237.3"/><polygon points="90.7,18.3 90.5,22.7 90.3,18.9"/><polygon points="164.5,104.6 164.4,172.6 162.5,186.3"/><polygon points="164.5,104.6 162.5,186.3 161.5,87.5"/><polygon points="112.1,23.0 111.2,162.1 111.2,24.3"/><polygon points="138.1,10.2 135.8,209.1 133.0,208.1"/><polygon points="138.1,10.2 133.0,208.1 132.8,10.2"/><polygon points="147.5,13.7 147.0,210.3 146.8,10.2"/><polygon points="127.3,10.2 125.9,198.3 125.7,10.2"/><polygon points="132.8,10.2 132.5,207.8 132.4,207.7"/><polygon points="132.8,10.2 132.4,207.7 131.7,206.9"/><polygon points="132.8,10.2 131.7,206.9 131.1,10.2"/><polygon points="149.4,23.3 147.9,212.2 147.7,210.7"/><polygon points="149.4,23.3 147.7,210.7 147.5,13.7"/><polygon points="163.5,62.9 163.4,75.0 163.1,78.7"/><polygon points="163.5,62.9 163.1,78.7 162.4,82.2"/><polygon points="163.5,62.9 162.4,82.2 162.1,84.9"/><polygon points="163.5,62.9 162.1,84.9 161.5,87.5"/><polygon points="161.5,87.5 161.5,195.4 160.8,200.9"/><polygon points="161.5,87.5 160.8,200.9 160.7,62.6"/><polygon points="163.5,62.9 161.5,87.5 160.7,62.6"/><polygon points="164.3,63.2 164.2,73.7 163.5,62.9"/><polygon points="91.8,18.0 90.9,24.9 90.7,18.3"/><polygon points="90.2,29.6 90.0,78.8 89.5,68.6"/><polygon points="90.2,29.6 89.5,68.6 89.3,35.8"/><polygon points="93.0,18.0 92.0,92.3 91.8,18.0"/><polygon points="93.5,37.7 93.4,101.6 93.3,24.7"/><polygon points="106.9,22.8 106.9,49.4 106.6,34.2"/><polygon points="106.9,22.8 106.6,34.2 106.5,23.8"/><polygon points="105.2,51.3 104.5,143.8 104.3,143.2"/><polygon points="105.2,51.3 104.3,143.2 103.8,141.4"/><polygon points="105.2,51.3 103.8,141.4 98.2,122.5"/><polygon points="105.2,51.3 98.2,122.5 96.8,116.7"/><polygon points="105.2,51.3 96.8,116.7 95.5,51.2"/><polygon points="166.6,126.6 166.5,151.3 166.5,151.8"/><polygon points="166.6,126.6 166.5,151.8 165.8,117.0"/><polygon points="160.7,201.8 160.8,200.9 160.8,200.5"/><polygon points="160.0,203.9 160.0,205.8 160.2,204.8"/><polygon points="160.0,203.9 160.2,204.8 160.1,203.9"/><polygon points="160.8,200.9 161.5,195.4 160.8,200.5"/><polygon points="160.1,204.9 160.2,204.8 160.0,205.8"/><polygon points="118.2,180.4 111.3,162.0 111.2,162.1"/><polygon points="118.2,180.4 111.2,162.1 116.2,175.0"/><polygon points="111.3,162.0 104.7,143.3 108.3,153.9"/><polygon points="111.3,162.0 108.3,153.9 111.2,162.1"/><polygon points="128.2,201.3 118.2,180.4 125.9,198.3"/><polygon points="128.2,201.3 125.9,198.3 127.5,201.6"/><polygon points="116.2,175.0 125.9,198.3 118.2,180.4"/><polygon points="132.4,207.7 132.5,207.8 132.5,207.8"/><polygon points="131.7,206.9 132.4,207.7 132.5,207.8"/><polygon points="132.5,207.8 128.2,201.3 127.5,201.6"/><polygon points="132.5,207.8 127.5,201.6 131.7,206.9"/><polygon points="132.5,207.8 133.0,208.1 132.5,207.8"/><polygon points="135.9,207.7 132.5,207.8 133.0,208.1"/><polygon points="135.9,207.7 133.0,208.1 135.8,209.1"/><polygon points="146.6,208.6 135.9,207.7 143.7,209.2"/><polygon points="146.6,208.6 143.7,209.2 146.2,209.3"/><polygon points="135.8,209.1 143.7,209.2 135.9,207.7"/><polygon points="159.0,208.0 160.8,200.5 161.5,195.4"/><polygon points="159.0,208.0 161.5,195.4 162.5,186.3"/><polygon points="160.8,200.5 160.0,203.9 160.1,203.9"/><polygon points="160.8,200.5 160.1,203.9 160.7,201.8"/><polygon points="147.0,210.3 147.7,210.7 147.7,210.8"/><polygon points="147.7,210.8 146.6,208.6 146.2,209.3"/><polygon points="147.7,210.8 146.2,209.3 147.0,210.3"/><polygon points="155.8,219.7 160.1,204.9 160.0,205.8"/><polygon points="148.7,233.4 147.7,210.8 147.9,212.2"/><polygon points="148.7,233.4 147.9,212.2 149.4,232.7"/><polygon points="147.7,210.7 147.9,212.2 147.7,210.8"/><polygon points="151.7,238.7 150.7,241.9 151.1,240.2"/><polygon points="151.7,238.7 151.1,240.2 151.4,239.1"/><polygon points="151.8,236.2 151.8,233.1 151.8,233.0"/><polygon points="160.0,205.8 151.8,233.0 151.8,233.1"/><polygon points="160.0,205.8 151.8,233.1 155.8,219.7"/><polygon points="147.2,239.5 147.2,238.7 147.3,237.3"/><polygon points="147.2,239.5 147.3,237.3 147.3,238.2"/><polygon points="147.3,238.2 147.6,239.3 147.2,239.5"/><polygon points="149.5,240.8 150.6,240.6 150.3,241.1"/><polygon points="151.4,239.1 151.8,238.1 151.7,238.7"/><polygon points="150.7,241.9 150.3,241.1 150.6,240.6"/><polygon points="150.7,241.9 150.6,240.6 151.1,240.2"/><polygon points="148.3,240.3 148.6,240.6 148.3,240.7"/><polygon points="150.3,241.1 148.3,240.7 148.6,240.6"/><polygon points="150.3,241.1 148.6,240.6 149.5,240.8"/><polygon points="148.3,240.7 147.2,239.5 147.6,239.3"/><polygon points="148.3,240.7 147.6,239.3 148.3,240.3"/><polygon points="151.8,233.0 151.7,238.7 151.8,238.1"/><polygon points="151.8,233.0 151.8,238.1 151.8,236.2"/><polygon points="90.9,24.9 90.2,29.6 90.9,25.0"/><polygon points="149.4,232.7 148.7,234.5 148.7,233.4"/><polygon points="148.7,234.5 147.6,236.1 148.7,233.4"/><polygon points="147.2,238.7 148.7,233.4 147.6,236.1"/><polygon points="147.2,238.7 147.6,236.1 147.3,237.3"/><polygon points="89.3,35.8 90.9,25.0 90.2,29.6"/><polygon points="89.3,35.8 90.2,29.6 89.3,35.8"/><polygon points="89.3,35.8 89.2,44.8 89.3,35.8"/><polygon points="90.5,22.7 90.9,24.9 90.9,25.0"/><polygon points="93.3,24.7 93.7,23.1 93.4,24.5"/><polygon points="109.5,24.0 108.0,21.7 108.1,21.8"/><polygon points="107.5,21.6 107.3,21.7 107.2,21.7"/><polygon points="107.2,21.7 108.1,21.8 108.0,21.7"/><polygon points="107.2,21.7 108.0,21.7 107.5,21.6"/><polygon points="106.4,23.9 107.2,21.7 107.3,21.7"/><polygon points="106.4,23.9 107.3,21.7 106.9,22.8"/><polygon points="106.9,22.8 106.5,23.8 106.4,23.9"/><polygon points="112.1,23.0 111.2,24.3 112.5,23.6"/><polygon points="112.5,23.6 114.4,10.2 113.4,15.7"/><polygon points="112.5,23.6 113.4,15.7 112.1,23.0"/><polygon points="109.8,25.1 112.5,23.6 111.2,24.3"/><polygon points="109.8,25.1 111.2,24.3 110.7,24.5"/><polygon points="110.7,24.5 109.8,24.6 109.8,25.1"/><polygon points="108.1,21.8 109.8,25.1 109.8,24.6"/><polygon points="108.1,21.8 109.8,24.6 109.5,24.0"/><polygon points="106.5,23.8 106.6,34.2 106.4,23.9"/><polygon points="106.8,50.0 106.4,23.9 106.6,34.2"/><polygon points="106.8,50.0 106.6,34.2 106.9,49.4"/><polygon points="93.5,37.7 93.3,24.7 93.4,24.5"/><polygon points="90.3,18.9 90.0,20.0 90.0,19.4"/><polygon points="90.0,19.4 90.9,18.2 90.7,18.3"/><polygon points="90.0,19.4 90.7,18.3 90.3,18.9"/><polygon points="90.9,25.0 90.0,19.4 90.0,20.0"/><polygon points="90.9,25.0 90.0,20.0 90.5,22.7"/><polygon points="91.8,18.0 90.7,18.3 90.9,18.2"/><polygon points="94.3,20.8 94.1,19.5 94.3,20.5"/><polygon points="114.3,10.2 113.4,15.7 114.4,10.2"/><polygon points="114.4,10.2 116.0,10.2 114.9,10.2"/><polygon points="114.4,10.2 114.9,10.2 114.4,10.2"/><polygon points="121.6,10.2 119.4,10.2 132.6,10.2"/><polygon points="119.4,10.2 117.0,10.2 132.6,10.2"/><polygon points="114.4,10.2 114.3,10.2 114.4,10.2"/><polygon points="93.9,18.7 93.0,18.0 93.9,18.3"/><polygon points="90.9,18.2 93.9,18.3 93.0,18.0"/><polygon points="90.9,18.2 93.0,18.0 91.8,18.0"/><polygon points="94.3,20.5 93.4,24.5 93.7,23.1"/><polygon points="94.3,20.5 93.7,23.1 94.3,20.8"/><polygon points="93.9,18.3 93.9,18.6 93.9,18.7"/><polygon points="93.9,18.3 93.9,18.7 93.9,18.7"/><polygon points="93.9,18.6 94.3,20.5 94.1,19.5"/><polygon points="93.9,18.6 94.1,19.5 93.9,18.7"/><polygon points="89.0,55.9 89.3,35.8 89.2,44.8"/><polygon points="89.0,55.9 89.2,44.8 89.0,56.1"/><polygon points="106.9,49.4 106.2,50.6 106.8,50.0"/><polygon points="105.9,50.9 105.2,51.3 105.3,51.3"/><polygon points="105.2,51.3 95.5,51.2 105.3,51.3"/><polygon points="95.0,51.3 105.3,51.3 95.5,51.2"/><polygon points="95.0,51.3 95.5,51.2 94.6,51.2"/><polygon points="93.7,50.1 95.0,51.3 94.6,51.2"/><polygon points="93.7,50.1 94.6,51.2 94.5,51.1"/><polygon points="94.5,51.1 93.6,49.5 93.7,50.1"/><polygon points="93.4,24.5 93.7,50.1 93.6,49.5"/><polygon points="93.4,24.5 93.6,49.5 93.5,37.7"/><polygon points="116.0,10.2 116.7,10.2 115.0,10.2"/><polygon points="116.0,10.2 115.0,10.2 114.9,10.2"/><polygon points="116.7,10.2 118.7,10.2 115.3,10.2"/><polygon points="116.7,10.2 115.3,10.2 115.0,10.2"/><polygon points="105.3,51.3 106.8,50.0 106.2,50.6"/><polygon points="105.3,51.3 106.2,50.6 105.9,50.9"/><polygon points="145.4,10.2 146.6,10.2 138.1,10.2"/><polygon points="145.4,10.2 138.1,10.2 132.8,10.2"/><polygon points="146.8,10.2 138.1,10.2 146.6,10.2"/><polygon points="125.5,10.2 126.7,10.2 116.2,10.2"/><polygon points="125.5,10.2 116.2,10.2 116.1,10.2"/><polygon points="118.7,10.2 120.6,10.2 115.5,10.2"/><polygon points="118.7,10.2 115.5,10.2 115.3,10.2"/><polygon points="120.6,10.2 122.5,10.2 115.7,10.2"/><polygon points="120.6,10.2 115.7,10.2 115.5,10.2"/><polygon points="122.5,10.2 124.6,10.2 116.0,10.2"/><polygon points="122.5,10.2 116.0,10.2 115.7,10.2"/><polygon points="124.6,10.2 125.5,10.2 116.1,10.2"/><polygon points="124.6,10.2 116.1,10.2 116.0,10.2"/><polygon points="126.7,10.2 128.4,10.2 116.4,10.2"/><polygon points="126.7,10.2 116.4,10.2 116.2,10.2"/><polygon points="128.4,10.2 129.4,10.2 116.5,10.2"/><polygon points="128.4,10.2 116.5,10.2 116.4,10.2"/><polygon points="129.4,10.2 132.6,10.2 117.0,10.2"/><polygon points="129.4,10.2 117.0,10.2 116.5,10.2"/><polygon points="132.6,10.2 135.0,10.2 122.5,10.2"/><polygon points="132.6,10.2 122.5,10.2 121.6,10.2"/><polygon points="135.0,10.2 136.5,10.2 123.2,10.2"/><polygon points="135.0,10.2 123.2,10.2 122.5,10.2"/><polygon points="136.5,10.2 138.5,10.2 124.3,10.2"/><polygon points="136.5,10.2 124.3,10.2 123.2,10.2"/><polygon points="138.5,10.2 140.5,10.2 125.7,10.2"/><polygon points="138.5,10.2 125.7,10.2 124.3,10.2"/><polygon points="140.5,10.2 142.4,10.2 127.3,10.2"/><polygon points="140.5,10.2 127.3,10.2 125.7,10.2"/><polygon points="142.4,10.2 143.8,10.2 129.2,10.2"/><polygon points="142.4,10.2 129.2,10.2 127.3,10.2"/><polygon points="143.8,10.2 144.9,10.2 131.1,10.2"/><polygon points="143.8,10.2 131.1,10.2 129.2,10.2"/><polygon points="144.9,10.2 145.4,10.2 132.8,10.2"/><polygon points="144.9,10.2 132.8,10.2 131.1,10.2"/><polygon points="147.5,13.7 146.8,10.2 146.6,10.2"/><polygon points="163.5,62.9 160.7,62.6 164.0,63.0"/><polygon points="158.9,62.5 164.0,63.0 160.7,62.6"/><polygon points="158.9,62.5 160.7,62.6 158.7,62.4"/><polygon points="158.7,62.4 157.3,61.1 158.9,62.5"/><polygon points="156.7,61.5 158.9,62.5 157.3,61.1"/><polygon points="156.7,61.5 157.3,61.1 156.8,60.9"/><polygon points="156.8,60.9 149.4,23.3 156.7,61.5"/><polygon points="146.6,10.2 156.7,61.5 149.4,23.3"/><polygon points="146.6,10.2 149.4,23.3 147.5,13.7"/><polygon points="164.3,63.2 163.5,62.9 164.0,63.0"/><polygon points="165.4,70.3 163.1,74.3 163.4,75.0"/><polygon points="165.4,70.3 163.4,75.0 164.2,73.7"/><polygon points="165.4,64.8 165.1,64.2 165.4,64.6"/><polygon points="165.2,70.7 165.4,67.6 165.4,70.3"/><polygon points="164.2,73.7 165.2,70.7 165.4,70.3"/><polygon points="164.0,63.0 165.4,64.6 165.1,64.2"/><polygon points="164.0,63.0 165.1,64.2 164.3,63.2"/><polygon points="165.4,64.6 165.4,70.3 165.4,67.6"/><polygon points="165.4,64.6 165.4,67.6 165.4,64.8"/><polygon points="89.5,68.6 90.0,78.8 90.0,78.9"/><polygon points="93.4,101.6 90.0,78.9 90.0,78.8"/><polygon points="93.4,101.6 90.0,78.8 92.0,92.3"/><polygon points="92.0,92.3 93.4,101.6 93.4,101.6"/><polygon points="90.0,78.9 89.0,55.9 89.0,56.1"/><polygon points="90.0,78.9 89.0,56.1 89.5,68.6"/><polygon points="98.1,122.5 93.4,101.6 93.4,101.6"/><polygon points="98.1,122.5 93.4,101.6 96.8,116.7"/><polygon points="98.5,122.5 98.1,122.5 103.8,141.4"/><polygon points="98.5,122.5 103.8,141.4 104.3,143.2"/><polygon points="104.7,143.3 98.5,122.5 104.3,143.2"/><polygon points="104.7,143.3 104.3,143.2 104.5,143.8"/><polygon points="96.8,116.7 98.2,122.5 98.1,122.5"/><polygon points="98.2,122.5 103.8,141.4 98.1,122.5"/><polygon points="163.1,74.3 162.4,82.6 163.1,78.7"/><polygon points="163.1,74.3 163.1,78.7 163.4,75.0"/><polygon points="162.4,82.2 163.1,78.7 162.4,82.6"/><polygon points="162.1,84.9 162.4,82.2 162.4,82.6"/><polygon points="162.4,82.6 161.3,87.7 161.5,87.5"/><polygon points="162.4,82.6 161.5,87.5 162.1,84.9"/><polygon points="164.5,104.6 161.5,87.5 161.3,87.7"/><polygon points="161.3,87.7 165.4,113.3 166.1,113.3"/><polygon points="161.3,87.7 166.1,113.3 164.5,104.6"/><polygon points="165.8,116.6 166.1,113.3 165.4,113.3"/><polygon points="104.5,143.8 108.3,153.9 104.7,143.3"/><polygon points="164.8,161.4 163.6,173.9 164.4,172.6"/><polygon points="164.8,161.4 164.4,172.6 164.8,168.1"/><polygon points="163.6,173.9 159.0,208.0 162.5,186.3"/><polygon points="163.6,173.9 162.5,186.3 164.4,172.6"/><polygon points="165.6,122.7 166.3,131.0 167.0,130.9"/><polygon points="165.6,122.7 167.0,130.9 166.6,126.6"/><polygon points="166.6,126.6 165.8,117.0 165.6,122.7"/><polygon points="165.3,119.8 165.6,122.7 165.8,117.0"/><polygon points="165.3,119.8 165.8,117.0 165.8,117.0"/><polygon points="165.4,113.3 165.3,119.8 165.8,117.0"/><polygon points="165.4,113.3 165.8,117.0 165.8,116.6"/><polygon points="166.3,131.0 166.0,142.7 166.8,136.9"/><polygon points="166.3,131.0 166.8,136.9 167.0,130.9"/><polygon points="165.8,151.7 164.8,161.4 164.8,168.1"/><polygon points="165.8,151.7 164.8,168.1 165.2,164.6"/><polygon points="165.2,164.6 166.5,151.8 165.8,151.7"/><polygon points="166.0,142.7 165.8,151.7 166.5,151.8"/><polygon points="166.0,142.7 166.5,151.8 166.5,151.3"/><polygon points="166.5,151.3 166.8,136.9 166.0,142.7"/></svg>