<svg xmlns="http://www.w3.org/2000/svg" width="256" height="256" viewBox="0 0 256 256"><polygon points="155.3,124.8 150.3,135.3 150.3,124.8"/><polygon points="89.1,153.1 88.1,154.7 86.9,151.8"/><polygon points="86.1,152.3 86.9,151.8 88.1,154.7"/><polygon points="150.3,135.3 145.7,124.8 150.3,124.8"/><polygon points="121.2,124.8 122.9,124.8 122.4,123.5"/><polygon points="122.4,123.5 121.7,120.2 121.2,124.8"/><polygon points="84.3,106.8 79.5,107.5 84.5,105.9"/><polygon points="121.2,124.8 122.4,135.3 122.9,124.8"/><polygon points="71.5,93.7 69.3,89.9 80.6,88.4"/><polygon points="104.6,153.2 100.1,154.4 100.2,150.2"/><polygon points="88.6,102.2 86.0,105.0 85.8,105.1"/><polygon points="85.2,105.4 88.6,102.2 85.8,105.1"/><polygon points="78.4,84.6 80.6,88.4 69.3,89.9"/><polygon points="84.9,105.6 88.6,102.2 85.2,105.4"/><polygon points="113.8,109.4 109.4,151.6 118.3,113.8"/><polygon points="112.3,108.6 109.4,151.6 113.8,109.4"/><polygon points="83.6,149.8 80.1,147.7 83.5,149.3"/><polygon points="105.5,149.3 104.6,153.2 100.2,150.2"/><polygon points="83.5,149.3 80.1,147.7 83.8,148.5"/><polygon points="79.2,112.4 81.6,111.1 81.3,110.7"/><polygon points="86.9,151.8 87.3,151.7 89.1,153.1"/><polygon points="106.9,152.8 104.6,153.2 105.5,149.3"/><polygon points="108.7,106.1 77.3,115.0 76.5,116.7"/><polygon points="108.7,106.1 76.5,116.7 73.5,124.6"/><polygon points="109.4,151.6 106.9,152.8 105.5,149.3"/><polygon points="108.7,106.1 102.0,104.2 90.7,105.9"/><polygon points="73.5,97.1 71.5,93.7 82.6,91.9"/><polygon points="94.8,104.1 90.7,105.9 102.0,104.2"/><polygon points="108.7,106.1 83.5,147.0 112.3,108.6"/><polygon points="90.7,105.9 87.3,107.8 108.7,106.1"/><polygon points="81.6,111.1 108.7,106.1 87.3,107.8"/><polygon points="108.7,106.1 81.6,111.1 77.3,115.0"/><polygon points="79.2,112.4 77.3,115.0 81.6,111.1"/><polygon points="94.8,104.1 90.3,105.3 90.7,105.9"/><polygon points="115.3,147.2 112.5,149.8 110.2,146.4"/><polygon points="90.7,105.9 90.3,105.3 87.3,107.8"/><polygon points="35.4,10.2 26.3,15.5 90.3,105.3"/><polygon points="81.6,111.1 87.3,107.8 81.3,110.7"/><polygon points="110.2,146.4 112.5,149.8 109.4,151.6"/><polygon points="87.3,107.8 90.3,105.3 26.3,15.5"/><polygon points="81.3,110.7 87.3,107.8 26.3,15.5"/><polygon points="83.6,150.8 79.1,149.3 83.6,149.8"/><polygon points="83.7,148.4 83.8,148.5 80.1,147.7"/><polygon points="80.7,146.6 83.7,148.4 80.1,147.7"/><polygon points="122.9,124.8 231.6,135.3 231.6,124.8"/><polygon points="122.4,135.3 121.2,135.3 122.2,136.2"/><polygon points="121.1,139.5 122.2,136.2 121.2,135.3"/><polygon points="121.7,120.2 118.3,113.8 121.2,124.8"/><polygon points="121.2,124.8 121.2,135.3 122.4,135.3"/><polygon points="231.6,135.3 122.9,124.8 122.4,135.3"/><polygon points="121.2,135.3 121.2,124.8 115.3,147.2"/><polygon points="119.9,141.6 121.2,135.3 117.8,144.6"/><polygon points="121.1,139.5 121.2,135.3 119.9,141.6"/><polygon points="115.3,147.2 117.8,144.6 121.2,135.3"/><polygon points="104.6,153.2 106.9,152.8 112.3,108.6"/><polygon points="109.4,151.6 121.2,124.8 118.3,113.8"/><polygon points="115.3,147.2 121.2,124.8 112.5,149.8"/><polygon points="112.5,149.8 121.2,124.8 109.4,151.6"/><polygon points="109.4,151.6 112.3,108.6 106.9,152.8"/><polygon points="81.3,145.7 108.7,106.1 81.3,145.7"/><polygon points="73.4,125.2 73.3,131.3 108.7,106.1"/><polygon points="81.3,145.7 108.7,106.1 81.3,145.7"/><polygon points="83.5,147.0 108.7,106.1 81.3,145.7"/><polygon points="90.3,151.1 100.1,154.4 112.3,108.6"/><polygon points="87.3,149.3 112.3,108.6 83.5,147.0"/><polygon points="90.3,151.1 112.3,108.6 87.3,149.3"/><polygon points="73.5,124.6 73.4,125.2 108.7,106.1"/><polygon points="80.6,146.9 81.3,145.7 78.7,144.9"/><polygon points="81.3,145.7 80.6,146.9 81.3,145.7"/><polygon points="81.3,145.7 80.6,146.9 81.3,145.7"/><polygon points="104.6,153.2 112.3,108.6 100.1,154.4"/><polygon points="84.4,95.0 75.3,100.3 82.6,91.9"/><polygon points="90.5,153.4 100.1,154.4 90.3,151.1"/><polygon points="81.7,144.7 82.4,146.4 82.3,146.3"/><polygon points="121.2,124.8 118.5,121.1 121.2,124.8"/><polygon points="90.4,153.7 90.5,153.4 90.2,153.8"/><polygon points="90.5,153.4 89.7,152.1 90.2,153.8"/><polygon points="88.9,153.3 90.2,153.8 88.9,153.3"/><polygon points="88.9,153.3 90.2,153.8 89.0,153.3"/><polygon points="89.0,153.3 90.2,153.8 89.7,152.1"/><polygon points="76.9,103.1 75.3,100.3 86.0,97.8"/><polygon points="89.7,152.1 90.5,153.4 90.3,151.1"/><polygon points="81.3,145.7 81.7,144.7 81.3,145.7"/><polygon points="81.3,145.7 81.7,144.7 81.3,145.7"/><polygon points="78.7,144.9 81.7,144.7 81.3,145.7"/><polygon points="81.6,145.9 81.3,145.7 81.7,144.7"/><polygon points="82.3,146.3 82.3,146.3 81.7,144.7"/><polygon points="84.4,95.0 86.0,97.8 75.3,100.3"/><polygon points="88.9,153.3 87.3,149.3 88.9,153.3"/><polygon points="89.0,153.3 87.3,149.3 88.9,153.3"/><polygon points="89.7,152.1 87.3,149.3 89.0,153.3"/><polygon points="90.3,151.1 87.3,149.3 89.7,152.1"/><polygon points="83.5,147.0 33.4,245.8 87.3,149.3"/><polygon points="80.6,146.9 33.4,245.8 83.5,147.0"/><polygon points="83.5,147.0 81.3,145.7 80.6,146.9"/><polygon points="88.9,153.3 87.3,149.3 33.4,245.8"/><polygon points="82.3,146.3 81.6,145.9 81.7,144.7"/><polygon points="74.2,135.2 75.0,138.7 108.7,106.1"/><polygon points="82.3,146.3 81.7,144.7 82.3,146.3"/><polygon points="73.5,97.1 82.6,91.9 75.3,100.3"/><polygon points="73.3,131.3 74.2,135.2 108.7,106.1"/><polygon points="75.4,139.5 78.7,144.9 108.7,106.1"/><polygon points="75.0,138.7 75.4,139.5 108.7,106.1"/><polygon points="81.3,145.7 108.7,106.1 78.7,144.9"/><polygon points="80.6,88.4 82.6,91.9 71.5,93.7"/><polygon points="80.6,146.9 24.4,240.3 33.4,245.8"/><polygon points="121.2,124.8 121.2,124.8 121.2,125.4"/><polygon points="121.2,125.5 121.2,125.4 121.2,124.8"/><polygon points="121.2,124.8 121.2,124.8 121.2,124.8"/><polygon points="121.2,124.8 121.2,124.8 118.5,121.1"/><polygon points="231.6,124.8 231.6,135.3 231.6,135.3"/><polygon points="231.6,124.8 231.6,135.3 231.6,124.8"/><polygon points="227.4,135.3 229.2,135.3 231.6,135.3"/><polygon points="229.2,135.3 230.5,135.3 231.6,135.3"/><polygon points="231.3,135.3 231.6,135.3 230.5,135.3"/><polygon points="231.6,135.3 230.5,135.3 231.6,135.3"/><polygon points="122.4,123.5 122.6,124.8 122.1,124.8"/><polygon points="229.2,124.8 229.2,135.3 227.4,135.3"/><polygon points="231.6,124.8 231.6,135.3 231.3,135.3"/><polygon points="79.9,168.4 70.9,163.0 82.0,165.0"/><polygon points="230.5,135.3 230.5,124.8 231.3,135.3"/><polygon points="229.2,124.8 230.5,124.8 229.2,135.3"/><polygon points="230.5,135.3 229.2,135.3 230.5,124.8"/><polygon points="81.1,140.1 85.4,140.4 85.0,146.7"/><polygon points="207.1,135.3 211.4,135.3 231.6,135.3"/><polygon points="211.4,135.3 215.4,135.3 231.6,135.3"/><polygon points="215.4,135.3 219.1,135.3 231.6,135.3"/><polygon points="219.1,135.3 222.3,135.3 231.6,135.3"/><polygon points="231.6,135.3 222.3,135.3 225.1,135.3"/><polygon points="231.6,135.3 225.1,135.3 227.4,135.3"/><polygon points="81.1,140.1 85.0,146.7 81.7,144.7"/><polygon points="122.6,124.8 122.4,123.5 122.9,124.8"/><polygon points="81.3,145.7 81.3,145.7 81.3,145.7"/><polygon points="81.3,145.7 81.3,145.7 81.3,145.7"/><polygon points="121.7,120.2 122.4,123.5 118.5,121.1"/><polygon points="211.4,135.3 207.1,135.3 207.1,124.8"/><polygon points="82.3,146.3 82.3,146.3 81.3,145.7"/><polygon points="81.3,145.7 81.6,145.9 81.3,145.7"/><polygon points="121.7,124.6 122.1,124.8 121.7,124.8"/><polygon points="121.7,124.6 121.8,124.8 122.1,124.8"/><polygon points="82.3,146.3 82.4,146.4 81.3,145.7"/><polygon points="82.3,146.3 81.3,145.7 81.6,145.9"/><polygon points="82.3,146.3 81.3,145.7 82.3,146.3"/><polygon points="121.8,124.8 121.7,124.6 122.0,124.8"/><polygon points="121.7,124.6 122.4,123.5 122.0,124.8"/><polygon points="122.1,124.8 122.0,124.8 122.4,123.5"/><polygon points="171.0,135.3 176.4,135.3 231.6,135.3"/><polygon points="231.6,135.3 176.4,135.3 181.8,135.3"/><polygon points="231.6,135.3 181.8,135.3 187.2,135.3"/><polygon points="231.6,135.3 187.2,135.3 192.4,135.3"/><polygon points="231.6,135.3 192.4,135.3 197.5,135.3"/><polygon points="231.6,135.3 197.5,135.3 202.4,135.3"/><polygon points="231.6,135.3 202.4,135.3 207.1,135.3"/><polygon points="121.7,124.6 118.5,121.1 122.4,123.5"/><polygon points="94.5,119.0 96.6,122.1 90.3,121.1"/><polygon points="81.3,145.7 80.8,146.5 78.7,144.9"/><polygon points="78.7,144.9 80.8,146.5 80.6,146.9"/><polygon points="94.5,119.0 100.4,118.0 96.6,122.1"/><polygon points="121.2,124.8 118.5,121.1 121.5,124.8"/><polygon points="121.5,124.8 121.5,124.8 118.5,121.1"/><polygon points="121.6,124.8 121.5,124.8 118.5,121.1"/><polygon points="176.4,135.3 171.0,135.3 171.0,124.8"/><polygon points="106.3,122.8 100.9,121.9 100.4,118.0"/><polygon points="171.0,135.3 165.6,135.3 165.6,124.8"/><polygon points="171.0,135.3 165.6,124.8 171.0,124.8"/><polygon points="100.9,121.9 96.6,122.1 100.4,118.0"/><polygon points="121.7,124.6 121.6,124.8 118.5,121.1"/><polygon points="121.7,124.8 121.6,124.8 121.7,124.6"/><polygon points="89.2,152.9 89.9,151.7 92.2,152.3"/><polygon points="81.3,145.7 82.4,146.4 81.1,145.9"/><polygon points="92.2,152.3 89.3,152.8 89.1,153.0"/><polygon points="104.0,126.5 100.9,121.9 106.3,122.8"/><polygon points="137.3,135.3 141.3,135.3 231.6,135.3"/><polygon points="141.3,135.3 145.7,135.3 231.6,135.3"/><polygon points="145.7,135.3 150.3,135.3 231.6,135.3"/><polygon points="150.3,135.3 155.3,135.3 231.6,135.3"/><polygon points="155.3,135.3 160.4,135.3 231.6,135.3"/><polygon points="160.4,135.3 165.6,135.3 231.6,135.3"/><polygon points="165.6,135.3 171.0,135.3 231.6,135.3"/><polygon points="125.4,124.8 122.1,124.8 127.7,124.8"/><polygon points="130.5,124.8 127.7,124.8 122.1,124.8"/><polygon points="133.7,124.8 130.5,124.8 122.1,124.8"/><polygon points="121.4,124.8 121.2,124.8 122.2,124.8"/><polygon points="121.2,124.8 121.2,124.8 122.2,124.8"/><polygon points="123.5,124.8 122.2,124.8 121.2,124.8"/><polygon points="121.2,124.8 121.2,124.8 123.5,124.8"/><polygon points="83.4,108.8 85.2,110.5 83.3,109.0"/><polygon points="141.3,124.8 137.3,124.8 122.9,124.8"/><polygon points="155.3,124.8 150.3,124.8 122.9,124.8"/><polygon points="26.3,15.5 26.3,15.5 81.3,110.7"/><polygon points="90.6,105.7 35.4,10.2 90.3,105.3"/><polygon points="122.0,124.8 122.1,124.8 121.8,124.8"/><polygon points="73.0,159.5 81.3,145.7 74.8,156.4"/><polygon points="137.3,124.8 133.7,124.8 122.6,124.8"/><polygon points="122.6,124.8 122.9,124.8 137.3,124.8"/><polygon points="145.7,124.8 141.3,124.8 122.9,124.8"/><polygon points="121.5,124.8 125.4,124.8 121.2,124.8"/><polygon points="81.1,145.9 80.7,146.6 81.3,145.7"/><polygon points="82.8,146.9 81.1,145.9 82.4,146.4"/><polygon points="121.5,124.8 125.4,124.8 121.5,124.8"/><polygon points="80.1,147.7 81.3,145.7 80.7,146.6"/><polygon points="121.6,124.8 125.4,124.8 121.5,124.8"/><polygon points="100.4,118.0 108.9,115.3 106.3,122.8"/><polygon points="82.4,146.4 81.7,144.7 82.8,146.9"/><polygon points="82.9,147.0 82.8,146.9 81.7,144.7"/><polygon points="106.3,122.8 111.9,119.2 109.7,123.8"/><polygon points="122.1,124.8 125.4,124.8 121.7,124.8"/><polygon points="121.7,124.8 125.4,124.8 121.6,124.8"/><polygon points="108.9,115.3 111.9,119.2 106.3,122.8"/><polygon points="83.7,148.4 80.7,146.6 82.9,147.0"/><polygon points="82.9,147.0 80.7,146.6 82.8,146.9"/><polygon points="111.9,119.2 114.9,124.8 109.7,123.8"/><polygon points="137.3,135.3 133.7,124.8 137.3,124.8"/><polygon points="86.5,105.5 87.3,106.2 86.9,107.6"/><polygon points="84.3,106.8 84.2,106.9 83.6,107.5"/><polygon points="81.0,110.2 80.4,109.1 83.4,108.8"/><polygon points="160.4,124.8 160.4,135.3 155.3,124.8"/><polygon points="155.3,135.3 155.3,124.8 160.4,135.3"/><polygon points="155.3,135.3 150.3,135.3 155.3,124.8"/><polygon points="108.9,115.3 100.4,118.0 104.7,113.6"/><polygon points="145.7,124.8 150.3,135.3 145.7,135.3"/><polygon points="83.3,109.3 83.4,111.1 83.3,109.8"/><polygon points="83.4,111.1 83.3,110.0 83.3,109.8"/><polygon points="165.6,135.3 160.4,135.3 160.4,124.8"/><polygon points="100.4,118.0 98.8,111.8 104.7,113.6"/><polygon points="145.7,135.3 141.3,135.3 141.3,124.8"/><polygon points="145.7,135.3 141.3,124.8 145.7,124.8"/><polygon points="87.3,106.2 87.6,106.5 86.9,107.6"/><polygon points="141.3,135.3 137.3,135.3 141.3,124.8"/><polygon points="118.5,121.1 114.9,124.8 111.9,119.2"/><polygon points="83.3,110.0 83.4,111.1 83.3,110.1"/><polygon points="41.7,231.9 34.8,223.0 43.8,228.5"/><polygon points="89.1,153.0 89.2,152.9 92.2,152.3"/><polygon points="90.9,151.2 92.2,152.3 89.9,151.7"/><polygon points="81.6,111.1 81.4,110.9 83.3,110.1"/><polygon points="89.5,108.8 86.9,107.6 91.0,107.6"/><polygon points="89.4,152.7 89.3,152.7 92.2,152.3"/><polygon points="89.3,152.8 92.2,152.3 89.3,152.7"/><polygon points="89.1,153.1 89.2,153.0 90.4,153.7"/><polygon points="90.5,153.4 90.4,153.7 89.2,153.0"/><polygon points="26.3,15.5 35.4,10.2 26.5,15.7"/><polygon points="83.3,109.0 85.2,110.5 83.3,109.3"/><polygon points="88.7,153.7 89.1,153.1 89.2,154.0"/><polygon points="90.4,153.7 89.2,154.0 89.1,153.1"/><polygon points="35.6,10.5 36.0,11.2 26.5,15.7"/><polygon points="83.4,108.8 83.3,109.0 81.0,110.2"/><polygon points="88.7,153.7 89.2,154.0 90.2,153.8"/><polygon points="88.7,153.7 90.2,153.8 88.9,153.3"/><polygon points="83.3,109.3 83.3,109.8 81.0,110.2"/><polygon points="89.2,154.0 90.4,153.7 89.2,154.0"/><polygon points="90.2,153.8 89.2,154.0 90.4,153.7"/><polygon points="83.3,109.0 83.3,109.3 81.0,110.2"/><polygon points="90.2,153.8 89.2,154.0 89.2,154.0"/><polygon points="83.2,110.2 83.4,111.1 82.9,110.3"/><polygon points="89.2,154.0 89.2,154.0 88.7,153.7"/><polygon points="88.7,153.7 88.7,153.7 89.2,154.0"/><polygon points="88.7,153.7 89.2,154.0 89.2,154.0"/><polygon points="83.4,111.1 83.2,110.2 83.3,110.1"/><polygon points="90.5,153.4 89.2,153.0 92.2,152.3"/><polygon points="89.4,152.7 92.2,152.3 89.2,153.0"/><polygon points="38.7,15.9 35.4,10.2 40.1,18.3"/><polygon points="35.4,10.2 47.7,31.5 45.5,27.7"/><polygon points="82.6,116.3 87.3,116.2 82.2,121.5"/><polygon points="92.5,113.1 100.4,118.0 94.5,119.0"/><polygon points="50.0,35.5 47.7,31.5 35.4,10.2"/><polygon points="43.5,24.2 35.4,10.2 45.5,27.7"/><polygon points="35.4,10.2 43.5,24.2 41.7,21.1"/><polygon points="35.4,10.2 41.7,21.1 40.1,18.3"/><polygon points="35.4,10.2 38.7,15.9 37.5,13.9"/><polygon points="35.4,10.2 37.5,13.9 36.6,12.3"/><polygon points="84.3,106.8 83.6,107.5 80.4,109.1"/><polygon points="26.9,16.4 26.5,15.7 36.0,11.2"/><polygon points="89.5,108.8 91.0,107.6 95.9,107.5"/><polygon points="28.4,19.1 27.5,17.5 37.5,13.9"/><polygon points="89.2,153.0 89.1,153.1 89.4,152.7"/><polygon points="35.4,10.2 36.6,12.3 36.0,11.2"/><polygon points="92.5,113.1 98.8,111.8 100.4,118.0"/><polygon points="88.7,153.7 33.4,245.8 88.7,153.7"/><polygon points="89.4,152.7 88.7,153.7 33.4,245.8"/><polygon points="35.4,10.2 36.0,11.2 35.6,10.5"/><polygon points="35.4,10.2 26.3,15.5 35.4,10.2"/><polygon points="89.1,153.1 88.7,153.7 89.4,152.7"/><polygon points="35.6,10.5 26.5,15.7 35.4,10.2"/><polygon points="87.3,116.2 90.3,121.1 82.2,121.5"/><polygon points="33.4,245.8 88.7,153.7 33.4,245.8"/><polygon points="87.3,116.2 94.5,119.0 90.3,121.1"/><polygon points="40.9,40.8 38.6,36.7 50.0,35.5"/><polygon points="88.9,153.3 33.4,245.8 88.7,153.7"/><polygon points="89.3,152.7 89.4,152.7 33.4,245.8"/><polygon points="87.3,116.2 92.5,113.1 94.5,119.0"/><polygon points="89.3,152.8 89.3,152.7 33.4,245.8"/><polygon points="87.3,116.2 89.5,108.8 92.5,113.1"/><polygon points="81.1,145.9 82.8,146.9 80.7,146.6"/><polygon points="98.8,111.8 92.5,113.1 89.5,108.8"/><polygon points="98.8,111.8 89.5,108.8 95.9,107.5"/><polygon points="35.4,10.2 52.5,39.8 50.0,35.5"/><polygon points="87.3,116.2 82.6,116.3 85.2,110.5"/><polygon points="104.4,132.1 99.0,127.0 104.0,126.5"/><polygon points="103.8,136.9 104.4,132.1 107.3,135.3"/><polygon points="31.0,23.6 40.1,18.3 41.7,21.1"/><polygon points="104.4,132.1 109.9,130.6 107.3,135.3"/><polygon points="104.0,126.5 109.9,130.6 104.4,132.1"/><polygon points="33.4,245.8 59.1,203.1 61.9,198.4"/><polygon points="31.0,23.6 38.7,15.9 40.1,18.3"/><polygon points="73.0,159.5 74.8,156.4 82.0,165.0"/><polygon points="109.9,130.6 104.0,126.5 106.3,122.8"/><polygon points="82.0,165.0 74.8,156.4 83.8,161.8"/><polygon points="106.3,122.8 109.7,123.8 109.9,130.6"/><polygon points="79.9,168.4 68.6,166.7 70.9,163.0"/><polygon points="36.8,240.2 35.6,242.2 27.8,234.8"/><polygon points="57.7,48.7 35.4,10.2 60.4,53.4"/><polygon points="99.0,127.0 96.6,122.1 100.9,121.9"/><polygon points="74.2,135.2 73.3,131.3 74.5,129.3"/><polygon points="90.5,153.4 92.2,152.3 100.2,150.2"/><polygon points="104.0,126.5 99.0,127.0 100.9,121.9"/><polygon points="35.4,10.2 57.7,48.7 55.0,44.2"/><polygon points="90.9,151.2 100.2,150.2 92.2,152.3"/><polygon points="30.9,229.6 32.7,226.5 39.9,235.0"/><polygon points="55.0,44.2 52.5,39.8 35.4,10.2"/><polygon points="90.3,151.1 90.9,151.2 90.3,151.1"/><polygon points="90.3,151.1 90.9,151.2 90.3,151.1"/><polygon points="90.1,151.0 90.9,151.2 90.3,151.1"/><polygon points="73.4,125.2 74.5,129.3 73.3,131.3"/><polygon points="90.5,153.4 100.2,150.2 100.1,154.4"/><polygon points="74.5,129.3 76.8,120.7 76.1,125.0"/><polygon points="99.0,127.0 104.4,132.1 99.5,133.2"/><polygon points="104.4,132.1 103.8,136.9 99.5,133.2"/><polygon points="33.4,245.8 33.6,245.5 34.0,244.9"/><polygon points="33.4,245.8 34.0,244.9 34.6,243.7"/><polygon points="75.4,139.5 81.7,144.7 78.7,144.9"/><polygon points="78.8,136.1 75.4,139.5 75.0,138.7"/><polygon points="35.6,242.2 33.4,245.8 34.6,243.7"/><polygon points="88.1,148.5 100.2,150.2 89.6,150.2"/><polygon points="43.8,228.5 46.1,224.7 33.4,245.8"/><polygon points="100.2,150.2 90.9,151.2 89.6,150.2"/><polygon points="36.8,240.2 33.4,245.8 35.6,242.2"/><polygon points="81.3,145.7 24.4,240.3 81.3,145.7"/><polygon points="96.6,122.1 91.2,128.9 90.3,121.1"/><polygon points="32.6,26.4 41.7,21.1 34.4,29.5"/><polygon points="33.4,245.8 41.7,231.9 43.8,228.5"/><polygon points="26.3,15.5 32.6,26.4 34.4,29.5"/><polygon points="91.2,128.9 96.6,122.1 95.2,129.8"/><polygon points="34.4,29.5 36.4,33.0 26.3,15.5"/><polygon points="99.0,127.0 95.2,129.8 96.6,122.1"/><polygon points="89.9,150.8 89.6,150.2 90.1,151.0"/><polygon points="89.9,150.8 89.8,150.8 89.6,150.2"/><polygon points="90.9,151.2 90.1,151.0 89.6,150.2"/><polygon points="95.2,129.8 96.4,136.8 93.0,133.9"/><polygon points="38.2,237.8 33.4,245.8 36.8,240.2"/><polygon points="93.0,133.9 91.2,128.9 95.2,129.8"/><polygon points="96.4,136.8 91.6,137.3 93.0,133.9"/><polygon points="91.6,137.3 88.7,134.1 93.0,133.9"/><polygon points="88.7,134.1 91.2,128.9 93.0,133.9"/><polygon points="39.9,235.0 41.7,231.9 33.4,245.8"/><polygon points="99.0,127.0 99.5,133.2 95.2,129.8"/><polygon points="36.4,33.0 34.4,29.5 45.5,27.7"/><polygon points="43.5,24.2 45.5,27.7 34.4,29.5"/><polygon points="79.9,168.4 77.7,172.1 68.6,166.7"/><polygon points="73.0,159.5 82.0,165.0 70.9,163.0"/><polygon points="36.4,33.0 45.5,27.7 38.6,36.7"/><polygon points="47.7,31.5 38.6,36.7 45.5,27.7"/><polygon points="99.5,133.2 96.4,136.8 95.2,129.8"/><polygon points="51.0,216.5 53.6,212.2 33.4,245.8"/><polygon points="83.6,107.5 83.4,108.8 80.4,109.1"/><polygon points="66.3,170.7 77.7,172.1 75.3,176.1"/><polygon points="99.5,133.2 97.9,139.1 96.4,136.8"/><polygon points="97.9,139.1 91.6,137.3 96.4,136.8"/><polygon points="56.3,207.7 33.4,245.8 53.6,212.2"/><polygon points="43.5,24.2 34.4,29.5 41.7,21.1"/><polygon points="99.5,133.2 103.8,136.9 97.9,139.1"/><polygon points="137.3,135.3 231.6,135.3 133.7,135.3"/><polygon points="121.4,135.3 122.2,135.3 231.6,135.3"/><polygon points="133.7,124.8 133.7,135.3 130.5,124.8"/><polygon points="130.5,135.3 130.5,124.8 133.7,135.3"/><polygon points="32.6,26.4 31.0,23.6 41.7,21.1"/><polygon points="61.1,179.3 63.7,174.9 72.7,180.3"/><polygon points="137.3,124.8 141.3,124.8 137.3,135.3"/><polygon points="38.7,15.9 31.0,23.6 29.6,21.1"/><polygon points="72.7,180.3 70.1,184.7 61.1,179.3"/><polygon points="133.7,124.8 137.3,135.3 133.7,135.3"/><polygon points="63.7,174.9 66.3,170.7 75.3,176.1"/><polygon points="83.3,109.8 83.3,110.0 81.4,110.9"/><polygon points="28.4,19.1 37.5,13.9 29.6,21.1"/><polygon points="38.7,15.9 29.6,21.1 37.5,13.9"/><polygon points="26.3,15.5 26.5,15.7 26.9,16.4"/><polygon points="90.3,121.1 91.2,128.9 86.9,129.3"/><polygon points="26.9,16.4 27.5,17.5 26.3,15.5"/><polygon points="91.2,128.9 88.7,134.1 86.9,129.3"/><polygon points="56.6,68.0 81.6,111.1 53.9,63.3"/><polygon points="63.7,174.9 75.3,176.1 72.7,180.3"/><polygon points="27.5,17.5 28.4,19.1 26.3,15.5"/><polygon points="48.6,54.0 81.6,111.1 45.9,49.4"/><polygon points="28.4,19.1 29.6,21.1 26.3,15.5"/><polygon points="133.7,135.3 231.6,135.3 130.5,135.3"/><polygon points="26.3,15.5 29.6,21.1 31.0,23.6"/><polygon points="62.0,77.2 64.5,81.6 81.6,111.1"/><polygon points="66.3,170.7 68.6,166.7 77.7,172.1"/><polygon points="123.5,135.3 231.6,135.3 122.2,135.3"/><polygon points="125.4,135.3 231.6,135.3 123.5,135.3"/><polygon points="127.7,135.3 231.6,135.3 125.4,135.3"/><polygon points="130.5,135.3 231.6,135.3 127.7,135.3"/><polygon points="64.5,81.6 67.0,85.9 81.6,111.1"/><polygon points="85.2,110.5 89.5,108.8 87.3,116.2"/><polygon points="32.6,26.4 26.3,15.5 31.0,23.6"/><polygon points="81.6,111.1 48.6,54.0 51.2,58.6"/><polygon points="81.6,111.1 51.2,58.6 53.9,63.3"/><polygon points="36.4,33.0 38.6,36.7 26.3,15.5"/><polygon points="73.5,97.1 81.6,111.1 71.5,93.7"/><polygon points="81.6,111.1 73.5,97.1 75.3,100.3"/><polygon points="58.4,183.8 61.1,179.3 67.4,189.2"/><polygon points="70.1,184.7 67.4,189.2 61.1,179.3"/><polygon points="26.9,16.4 36.0,11.2 27.5,17.5"/><polygon points="36.6,12.3 27.5,17.5 36.0,11.2"/><polygon points="81.6,111.1 67.0,85.9 69.3,89.9"/><polygon points="36.6,12.3 37.5,13.9 27.5,17.5"/><polygon points="81.6,111.1 69.3,89.9 71.5,93.7"/><polygon points="26.3,15.5 26.3,15.5 35.4,10.2"/><polygon points="76.9,103.1 81.6,111.1 75.3,100.3"/><polygon points="76.9,103.1 78.3,105.5 81.6,111.1"/><polygon points="81.6,111.1 78.3,105.5 79.5,107.5"/><polygon points="113.8,135.9 110.2,141.1 107.3,135.3"/><polygon points="81.0,110.2 81.6,111.1 80.4,109.1"/><polygon points="79.5,107.5 80.4,109.1 81.6,111.1"/><polygon points="81.3,145.7 24.4,240.3 80.8,146.5"/><polygon points="109.9,130.6 114.9,124.8 113.9,131.0"/><polygon points="121.2,132.9 118.2,137.7 121.2,132.4"/><polygon points="78.4,84.6 76.1,80.6 90.7,105.9"/><polygon points="109.7,123.8 114.9,124.8 109.9,130.6"/><polygon points="109.9,130.6 113.8,135.9 107.3,135.3"/><polygon points="118.2,137.7 121.2,132.9 121.2,132.7"/><polygon points="76.1,80.6 73.6,76.4 90.7,105.9"/><polygon points="90.7,105.9 73.6,76.4 71.1,71.9"/><polygon points="83.3,110.0 83.3,110.1 81.4,110.9"/><polygon points="83.2,110.2 82.9,110.3 81.6,111.1"/><polygon points="81.6,111.1 81.0,110.2 81.4,110.9"/><polygon points="83.3,109.8 81.4,110.9 81.0,110.2"/><polygon points="108.9,115.3 114.7,115.4 111.9,119.2"/><polygon points="82.7,110.5 81.6,111.1 82.9,110.3"/><polygon points="83.3,110.1 83.2,110.2 81.6,111.1"/><polygon points="110.2,141.1 103.8,136.9 107.3,135.3"/><polygon points="108.9,115.3 112.0,112.2 114.7,115.4"/><polygon points="76.8,120.7 79.3,116.6 82.6,116.3"/><polygon points="90.3,151.1 90.3,151.1 90.3,151.1"/><polygon points="109.9,130.6 113.9,131.0 113.8,135.9"/><polygon points="90.3,151.1 90.3,151.1 90.3,151.1"/><polygon points="121.2,134.6 118.2,137.7 121.2,132.9"/><polygon points="89.9,150.8 90.1,151.0 90.3,151.1"/><polygon points="90.3,151.1 90.3,151.1 90.1,151.0"/><polygon points="98.8,111.8 106.5,109.2 104.7,113.6"/><polygon points="121.2,132.4 120.5,132.7 121.2,132.4"/><polygon points="90.3,151.1 90.9,151.2 90.0,151.7"/><polygon points="90.3,151.1 64.6,193.8 67.4,189.2"/><polygon points="87.3,106.2 87.3,106.2 86.9,107.6"/><polygon points="87.6,106.5 87.7,106.5 86.9,107.6"/><polygon points="121.4,126.5 121.4,126.5 120.0,126.4"/><polygon points="82.2,121.5 76.8,120.7 82.6,116.3"/><polygon points="76.1,125.0 82.2,121.5 80.2,129.7"/><polygon points="95.9,107.5 101.6,107.8 98.8,111.8"/><polygon points="74.5,129.3 73.4,125.2 76.8,120.7"/><polygon points="59.1,203.1 50.1,197.7 61.9,198.4"/><polygon points="73.4,125.2 73.5,124.6 76.8,120.7"/><polygon points="73.5,124.6 76.5,116.7 76.8,120.7"/><polygon points="118.5,121.1 121.2,125.4 120.0,126.4"/><polygon points="61.9,198.4 52.8,193.0 64.6,193.8"/><polygon points="55.6,188.4 58.4,183.8 67.4,189.2"/><polygon points="55.6,188.4 67.4,189.2 64.6,193.8"/><polygon points="121.2,125.7 120.0,126.4 121.2,125.5"/><polygon points="121.2,125.4 121.2,125.5 120.0,126.4"/><polygon points="121.2,125.7 121.2,125.9 120.0,126.4"/><polygon points="103.8,136.9 104.1,144.6 97.9,139.1"/><polygon points="106.5,109.2 98.8,111.8 101.6,107.8"/><polygon points="82.2,121.5 76.1,125.0 76.8,120.7"/><polygon points="121.2,132.9 121.2,135.3 121.2,132.9"/><polygon points="79.3,116.6 76.8,120.7 77.3,115.0"/><polygon points="76.8,120.7 76.5,116.7 77.3,115.0"/><polygon points="121.2,132.4 121.2,135.3 121.2,132.4"/><polygon points="121.2,132.9 121.2,132.4 121.2,135.3"/><polygon points="113.8,109.4 112.0,112.2 112.3,108.6"/><polygon points="77.3,115.0 81.6,111.1 79.3,116.6"/><polygon points="112.0,112.2 106.5,109.2 112.3,108.6"/><polygon points="121.2,132.9 121.2,132.9 121.2,132.7"/><polygon points="104.1,144.6 103.8,136.9 110.2,141.1"/><polygon points="112.0,112.2 108.9,115.3 106.5,109.2"/><polygon points="121.2,124.8 121.2,125.7 121.2,125.5"/><polygon points="82.6,116.3 79.3,116.6 83.4,111.1"/><polygon points="80.8,146.5 24.4,240.3 80.6,146.9"/><polygon points="106.5,109.2 108.7,106.1 112.3,108.6"/><polygon points="106.5,109.2 108.9,115.3 104.7,113.6"/><polygon points="81.3,110.7 81.4,110.8 79.2,112.4"/><polygon points="81.4,110.8 81.4,111.0 79.2,112.4"/><polygon points="81.5,111.0 79.2,112.4 81.4,111.0"/><polygon points="121.2,132.4 120.5,132.7 121.4,132.2"/><polygon points="82.6,135.0 78.8,136.1 80.2,129.7"/><polygon points="112.0,112.2 118.3,113.8 114.7,115.4"/><polygon points="78.8,136.1 78.2,130.7 80.2,129.7"/><polygon points="79.2,112.4 81.5,111.0 77.3,115.0"/><polygon points="81.5,111.1 77.3,115.0 81.5,111.0"/><polygon points="123.2,130.1 123.2,130.2 121.5,127.8"/><polygon points="81.6,111.1 77.3,115.0 81.5,111.1"/><polygon points="121.7,120.2 118.5,121.1 118.3,113.8"/><polygon points="112.0,112.2 113.8,109.4 118.3,113.8"/><polygon points="76.1,125.0 80.2,129.7 78.2,130.7"/><polygon points="56.3,207.7 59.1,203.1 33.4,245.8"/><polygon points="81.8,111.0 79.3,116.6 81.6,111.1"/><polygon points="82.2,121.5 86.9,129.3 80.2,129.7"/><polygon points="118.5,121.1 111.9,119.2 114.7,115.4"/><polygon points="52.8,193.0 61.9,198.4 50.1,197.7"/><polygon points="39.9,235.0 33.4,245.8 38.2,237.8"/><polygon points="81.4,111.0 81.4,110.8 26.3,15.5"/><polygon points="114.7,115.4 118.3,113.8 118.5,121.1"/><polygon points="82.6,135.0 80.2,129.7 86.9,129.3"/><polygon points="81.5,111.1 81.5,111.0 26.3,15.5"/><polygon points="81.5,111.0 81.4,111.0 26.3,15.5"/><polygon points="121.2,124.8 121.2,125.4 118.5,121.1"/><polygon points="82.2,121.5 90.3,121.1 86.9,129.3"/><polygon points="81.4,110.8 81.3,110.7 26.3,15.5"/><polygon points="86.9,129.3 88.7,134.1 82.6,135.0"/><polygon points="55.6,188.4 64.6,193.8 52.8,193.0"/><polygon points="78.8,136.1 74.2,135.2 74.5,129.3"/><polygon points="46.1,224.7 48.4,220.7 33.4,245.8"/><polygon points="74.5,129.3 78.2,130.7 78.8,136.1"/><polygon points="33.4,245.8 48.4,220.7 51.0,216.5"/><polygon points="74.5,129.3 76.1,125.0 78.2,130.7"/><polygon points="95.9,107.5 102.0,104.2 101.6,107.8"/><polygon points="106.5,109.2 101.6,107.8 102.0,104.2"/><polygon points="89.5,106.5 90.1,106.2 91.0,107.6"/><polygon points="97.9,139.1 104.1,144.6 97.3,146.1"/><polygon points="94.8,104.1 102.0,104.2 95.9,107.5"/><polygon points="120.5,132.7 120.0,126.4 121.5,127.8"/><polygon points="102.0,104.2 108.7,106.1 106.5,109.2"/><polygon points="91.6,137.3 85.4,140.4 88.7,134.1"/><polygon points="85.4,140.4 91.6,137.3 90.9,144.4"/><polygon points="121.5,127.8 122.2,127.2 123.0,127.7"/><polygon points="85.4,140.4 81.1,140.1 78.8,136.1"/><polygon points="82.6,110.5 82.7,110.5 83.4,111.1"/><polygon points="82.9,110.3 83.4,111.1 82.7,110.5"/><polygon points="67.0,85.9 76.1,80.6 69.3,89.9"/><polygon points="50.1,197.7 59.1,203.1 47.3,202.2"/><polygon points="56.3,207.7 47.3,202.2 59.1,203.1"/><polygon points="81.1,140.1 81.7,144.7 75.4,139.5"/><polygon points="75.4,139.5 78.8,136.1 81.1,140.1"/><polygon points="56.3,207.7 53.6,212.2 47.3,202.2"/><polygon points="82.3,110.7 82.6,110.5 83.4,111.1"/><polygon points="87.4,100.2 88.6,102.2 78.3,105.5"/><polygon points="82.3,110.7 83.4,111.1 79.3,116.6"/><polygon points="79.3,116.6 81.8,111.0 82.3,110.7"/><polygon points="88.6,102.2 79.5,107.5 78.3,105.5"/><polygon points="30.9,229.6 39.9,235.0 29.2,232.4"/><polygon points="38.2,237.8 29.2,232.4 39.9,235.0"/><polygon points="90.7,105.9 90.7,105.9 90.4,106.0"/><polygon points="90.4,106.0 90.4,106.0 90.7,105.9"/><polygon points="82.6,135.0 85.4,140.4 78.8,136.1"/><polygon points="90.4,106.0 90.1,106.2 90.7,105.9"/><polygon points="89.5,106.5 90.7,105.9 90.1,106.2"/><polygon points="38.2,237.8 27.8,234.8 29.2,232.4"/><polygon points="44.6,206.8 53.6,212.2 42.0,211.1"/><polygon points="41.7,231.9 39.9,235.0 32.7,226.5"/><polygon points="81.6,111.1 82.7,110.5 82.6,110.5"/><polygon points="86.0,105.0 88.6,102.2 86.5,105.5"/><polygon points="82.6,110.5 82.3,110.7 81.6,111.1"/><polygon points="81.6,111.1 81.6,111.1 81.8,111.0"/><polygon points="34.8,223.0 41.7,231.9 32.7,226.5"/><polygon points="81.8,111.0 81.6,111.1 82.3,110.7"/><polygon points="44.6,206.8 47.3,202.2 53.6,212.2"/><polygon points="94.8,104.1 90.6,105.7 90.3,105.3"/><polygon points="91.0,107.6 90.1,106.2 95.9,107.5"/><polygon points="90.7,105.9 90.6,105.7 94.8,104.1"/><polygon points="68.6,166.7 24.4,240.3 81.3,145.7"/><polygon points="90.6,105.7 94.8,104.1 90.6,105.7"/><polygon points="121.4,126.5 120.0,126.4 121.2,125.9"/><polygon points="90.7,105.9 35.4,10.2 90.6,105.7"/><polygon points="90.4,106.0 90.4,106.0 95.9,107.5"/><polygon points="90.6,105.7 35.4,10.2 90.6,105.7"/><polygon points="87.3,106.2 89.5,103.8 87.6,106.5"/><polygon points="121.5,127.8 120.0,126.4 121.4,126.5"/><polygon points="90.1,105.0 87.6,106.5 89.5,103.8"/><polygon points="87.3,106.2 89.5,103.8 87.3,106.2"/><polygon points="121.4,132.2 121.4,135.3 121.2,132.4"/><polygon points="90.7,105.9 35.4,10.2 90.7,105.9"/><polygon points="121.2,135.3 121.2,132.4 121.4,135.3"/><polygon points="82.6,135.0 88.7,134.1 85.4,140.4"/><polygon points="78.8,136.1 75.0,138.7 74.2,135.2"/><polygon points="121.2,125.9 121.2,125.7 121.4,124.8"/><polygon points="121.2,124.8 121.4,124.8 121.2,125.7"/><polygon points="97.9,139.1 97.3,146.1 90.9,144.4"/><polygon points="121.4,124.8 121.4,126.5 121.2,125.9"/><polygon points="90.9,144.4 91.6,137.3 97.9,139.1"/><polygon points="90.3,151.1 33.4,245.8 64.6,193.8"/><polygon points="64.6,193.8 33.4,245.8 61.9,198.4"/><polygon points="90.7,105.9 71.1,71.9 68.4,67.4"/><polygon points="87.4,100.2 78.3,105.5 86.0,97.8"/><polygon points="90.7,105.9 86.0,97.8 84.4,95.0"/><polygon points="123.2,128.3 123.2,130.1 121.5,127.8"/><polygon points="123.2,130.1 121.5,127.8 123.2,130.1"/><polygon points="123.2,127.9 123.2,127.9 121.5,127.8"/><polygon points="121.5,127.8 123.0,127.7 123.2,127.9"/><polygon points="84.4,95.0 82.6,91.9 90.7,105.9"/><polygon points="90.9,151.2 89.9,151.7 90.0,151.7"/><polygon points="85.4,140.4 90.9,144.4 85.0,146.7"/><polygon points="46.1,224.7 37.0,219.3 48.4,220.7"/><polygon points="76.9,103.1 86.0,97.8 78.3,105.5"/><polygon points="42.0,211.1 51.0,216.5 39.4,215.3"/><polygon points="42.0,211.1 53.6,212.2 51.0,216.5"/><polygon points="89.2,152.9 33.4,245.8 89.9,151.7"/><polygon points="90.0,151.7 89.9,151.7 33.4,245.8"/><polygon points="130.5,135.3 127.7,135.3 127.7,124.8"/><polygon points="39.4,215.3 51.0,216.5 48.4,220.7"/><polygon points="90.0,151.7 33.4,245.8 90.3,151.1"/><polygon points="90.3,151.1 33.4,245.8 90.3,151.1"/><polygon points="130.5,124.8 130.5,135.3 127.7,124.8"/><polygon points="90.9,144.4 88.1,148.5 85.0,146.7"/><polygon points="97.3,146.1 88.1,148.5 90.9,144.4"/><polygon points="88.1,154.7 89.1,153.1 90.3,151.1"/><polygon points="231.6,124.8 231.3,124.8 230.5,124.8"/><polygon points="229.2,124.8 231.6,124.8 230.5,124.8"/><polygon points="229.2,124.8 227.4,135.3 227.4,124.8"/><polygon points="225.1,135.3 227.4,124.8 227.4,135.3"/><polygon points="231.6,124.8 231.3,135.3 231.3,124.8"/><polygon points="230.5,124.8 231.3,124.8 231.3,135.3"/><polygon points="231.6,124.8 230.5,124.8 231.6,124.8"/><polygon points="192.4,124.8 187.2,124.8 231.6,124.8"/><polygon points="222.3,124.8 231.6,124.8 225.1,124.8"/><polygon points="227.4,124.8 225.1,124.8 231.6,124.8"/><polygon points="219.1,124.8 231.6,124.8 222.3,124.8"/><polygon points="215.4,124.8 231.6,124.8 219.1,124.8"/><polygon points="211.4,124.8 231.6,124.8 215.4,124.8"/><polygon points="207.1,124.8 231.6,124.8 211.4,124.8"/><polygon points="225.1,135.3 225.1,124.8 227.4,124.8"/><polygon points="225.1,135.3 222.3,135.3 222.3,124.8"/><polygon points="225.1,135.3 222.3,124.8 225.1,124.8"/><polygon points="219.1,124.8 222.3,124.8 219.1,135.3"/><polygon points="222.3,135.3 219.1,135.3 222.3,124.8"/><polygon points="83.8,161.8 90.3,151.1 82.0,165.0"/><polygon points="211.4,124.8 211.4,135.3 207.1,124.8"/><polygon points="89.1,153.1 89.7,152.0 90.3,151.1"/><polygon points="219.1,135.3 215.4,135.3 215.4,124.8"/><polygon points="219.1,135.3 215.4,124.8 219.1,124.8"/><polygon points="211.4,124.8 215.4,124.8 211.4,135.3"/><polygon points="215.4,135.3 211.4,135.3 215.4,124.8"/><polygon points="89.7,152.0 90.2,151.3 90.3,151.1"/><polygon points="86.5,105.5 89.5,103.8 87.3,106.2"/><polygon points="202.4,135.3 207.1,124.8 207.1,135.3"/><polygon points="229.2,124.8 227.4,124.8 231.6,124.8"/><polygon points="207.1,124.8 202.4,124.8 231.6,124.8"/><polygon points="39.4,215.3 48.4,220.7 37.0,219.3"/><polygon points="192.4,124.8 231.6,124.8 197.5,124.8"/><polygon points="43.8,228.5 34.8,223.0 46.1,224.7"/><polygon points="37.0,219.3 46.1,224.7 34.8,223.0"/><polygon points="181.8,135.3 187.2,124.8 187.2,135.3"/><polygon points="90.4,106.0 90.7,105.9 95.9,107.5"/><polygon points="94.8,104.1 95.9,107.5 90.7,105.9"/><polygon points="197.5,124.8 202.4,124.8 197.5,135.3"/><polygon points="202.4,135.3 197.5,135.3 202.4,124.8"/><polygon points="197.5,135.3 192.4,135.3 192.4,124.8"/><polygon points="197.5,135.3 192.4,124.8 197.5,124.8"/><polygon points="125.4,124.8 127.7,124.8 125.4,135.3"/><polygon points="187.2,124.8 192.4,124.8 187.2,135.3"/><polygon points="192.4,135.3 187.2,135.3 192.4,124.8"/><polygon points="90.7,105.9 90.1,105.0 89.5,103.8"/><polygon points="90.7,105.9 89.5,103.8 88.6,102.2"/><polygon points="187.2,124.8 181.8,124.8 231.6,124.8"/><polygon points="197.5,124.8 231.6,124.8 202.4,124.8"/><polygon points="127.7,135.3 125.4,135.3 127.7,124.8"/><polygon points="202.4,124.8 207.1,124.8 202.4,135.3"/><polygon points="122.9,131.3 122.2,131.7 120.5,132.7"/><polygon points="171.0,124.8 122.9,124.8 176.4,124.8"/><polygon points="165.6,124.8 122.9,124.8 171.0,124.8"/><polygon points="122.9,124.8 231.6,124.8 176.4,124.8"/><polygon points="160.4,124.8 122.9,124.8 165.6,124.8"/><polygon points="181.8,124.8 176.4,124.8 231.6,124.8"/><polygon points="181.8,135.3 181.8,124.8 187.2,124.8"/><polygon points="120.5,132.7 121.5,127.8 123.2,130.2"/><polygon points="176.4,124.8 181.8,124.8 176.4,135.3"/><polygon points="181.8,135.3 176.4,135.3 181.8,124.8"/><polygon points="122.9,131.3 120.5,132.7 123.2,130.2"/><polygon points="176.4,124.8 176.4,135.3 171.0,124.8"/><polygon points="90.7,105.9 88.6,102.2 87.4,100.2"/><polygon points="165.6,124.8 165.6,135.3 160.4,124.8"/><polygon points="89.3,150.7 89.2,150.8 89.6,150.2"/><polygon points="122.1,124.8 122.6,124.8 133.7,124.8"/><polygon points="150.3,124.8 145.7,124.8 122.9,124.8"/><polygon points="123.5,124.8 121.2,124.8 125.4,124.8"/><polygon points="122.0,124.8 122.1,124.8 133.7,124.8"/><polygon points="122.1,124.8 122.0,124.8 133.7,124.8"/><polygon points="160.4,124.8 155.3,124.8 122.9,124.8"/><polygon points="89.3,150.7 89.6,150.2 89.8,150.8"/><polygon points="90.2,151.3 89.2,150.8 89.3,150.7"/><polygon points="90.2,151.3 89.3,150.7 89.8,150.8"/><polygon points="89.9,150.8 90.2,151.3 89.8,150.8"/><polygon points="90.3,151.1 90.2,151.3 89.9,150.8"/><polygon points="87.3,151.7 86.4,149.9 87.4,151.7"/><polygon points="87.4,151.7 89.6,150.2 88.3,151.1"/><polygon points="89.2,150.8 88.5,151.1 89.6,150.2"/><polygon points="88.3,151.1 89.7,152.0 89.1,153.1"/><polygon points="87.3,151.7 87.4,151.7 89.1,153.1"/><polygon points="88.3,151.1 89.1,153.1 87.4,151.7"/><polygon points="88.3,151.1 89.6,150.2 88.5,151.1"/><polygon points="88.5,151.1 89.2,150.8 89.7,152.0"/><polygon points="88.3,151.1 88.5,151.1 89.7,152.0"/><polygon points="90.2,151.3 89.7,152.0 89.2,150.8"/><polygon points="90.3,151.1 83.8,161.8 85.5,159.1"/><polygon points="85.0,146.7 83.9,148.4 81.7,144.7"/><polygon points="85.0,146.7 86.4,149.9 83.9,148.4"/><polygon points="88.1,148.5 86.4,149.9 85.0,146.7"/><polygon points="86.4,149.9 88.1,148.5 89.6,150.2"/><polygon points="89.6,150.2 87.4,151.7 86.4,149.9"/><polygon points="81.3,145.7 70.9,163.0 68.6,166.7"/><polygon points="90.3,151.1 86.9,156.7 88.1,154.7"/><polygon points="86.9,156.7 90.3,151.1 85.5,159.1"/><polygon points="86.4,149.9 85.6,152.0 84.7,151.5"/><polygon points="84.7,151.5 83.7,150.9 86.4,149.9"/><polygon points="86.1,152.3 86.4,149.9 86.9,151.8"/><polygon points="85.7,152.1 85.0,151.7 85.6,152.0"/><polygon points="80.1,147.7 83.6,149.8 79.1,149.3"/><polygon points="84.5,151.4 88.1,154.7 83.7,150.9"/><polygon points="83.7,150.9 79.1,149.3 83.6,150.8"/><polygon points="84.9,151.6 88.1,154.7 84.5,151.4"/><polygon points="84.9,151.6 85.0,151.7 88.1,154.7"/><polygon points="86.1,152.3 88.1,154.7 85.7,152.1"/><polygon points="85.0,151.7 85.7,152.1 88.1,154.7"/><polygon points="83.8,161.8 74.8,156.4 85.5,159.1"/><polygon points="76.5,153.7 85.5,159.1 74.8,156.4"/><polygon points="88.1,154.7 86.9,156.7 79.1,149.3"/><polygon points="77.9,151.3 79.1,149.3 86.9,156.7"/><polygon points="76.5,153.7 77.9,151.3 85.5,159.1"/><polygon points="86.9,156.7 85.5,159.1 77.9,151.3"/><polygon points="81.3,145.7 80.1,147.7 79.1,149.3"/><polygon points="81.3,145.7 79.1,149.3 77.9,151.3"/><polygon points="76.5,153.7 81.3,145.7 77.9,151.3"/><polygon points="76.5,153.7 74.8,156.4 81.3,145.7"/><polygon points="73.0,159.5 70.9,163.0 81.3,145.7"/><polygon points="90.3,151.1 67.4,189.2 70.1,184.7"/><polygon points="70.1,184.7 72.7,180.3 90.3,151.1"/><polygon points="75.3,176.1 90.3,151.1 72.7,180.3"/><polygon points="90.3,151.1 79.9,168.4 82.0,165.0"/><polygon points="77.7,172.1 79.9,168.4 90.3,151.1"/><polygon points="77.7,172.1 90.3,151.1 75.3,176.1"/><polygon points="89.1,153.0 89.3,152.8 33.4,245.8"/><polygon points="89.2,152.9 89.1,153.0 33.4,245.8"/><polygon points="122.2,127.2 121.5,127.8 122.2,127.2"/><polygon points="83.9,148.4 83.6,150.8 83.6,149.8"/><polygon points="83.9,148.4 83.6,149.8 83.5,149.3"/><polygon points="83.5,149.3 83.8,148.5 83.9,148.4"/><polygon points="83.6,150.8 86.4,149.9 83.7,150.9"/><polygon points="83.9,148.4 86.4,149.9 83.6,150.8"/><polygon points="84.7,151.5 84.5,151.4 83.7,150.9"/><polygon points="84.5,151.4 84.7,151.5 84.9,151.6"/><polygon points="83.8,148.5 83.7,148.4 83.9,148.4"/><polygon points="83.7,148.4 82.9,147.0 83.9,148.4"/><polygon points="81.7,144.7 83.9,148.4 82.9,147.0"/><polygon points="90.7,105.9 87.4,100.2 86.0,97.8"/><polygon points="68.4,67.4 59.3,72.6 65.8,62.7"/><polygon points="56.6,68.0 65.8,62.7 59.3,72.6"/><polygon points="125.4,135.3 123.5,135.3 125.4,124.8"/><polygon points="80.6,88.4 78.4,84.6 90.7,105.9"/><polygon points="123.5,124.8 125.4,124.8 123.5,135.3"/><polygon points="85.6,152.0 86.4,149.9 86.1,152.3"/><polygon points="86.9,151.8 86.4,149.9 87.3,151.7"/><polygon points="85.7,152.1 85.6,152.0 86.1,152.3"/><polygon points="122.2,131.7 121.5,132.2 120.5,132.7"/><polygon points="80.6,88.4 90.7,105.9 82.6,91.9"/><polygon points="84.7,151.5 85.6,152.0 85.0,151.7"/><polygon points="89.0,106.6 91.0,107.6 88.8,106.6"/><polygon points="84.7,151.5 85.0,151.7 84.9,151.6"/><polygon points="79.1,149.3 83.7,150.9 88.1,154.7"/><polygon points="90.4,106.0 95.9,107.5 90.1,106.2"/><polygon points="123.2,128.3 121.5,127.8 123.2,127.9"/><polygon points="89.0,106.6 89.3,106.7 91.0,107.6"/><polygon points="123.2,130.1 123.2,128.3 123.2,127.9"/><polygon points="89.3,106.7 90.5,105.6 90.7,105.9"/><polygon points="123.5,135.3 122.2,135.3 122.2,131.7"/><polygon points="123.5,135.3 122.2,131.7 122.9,131.3"/><polygon points="123.5,135.3 122.9,131.3 123.2,130.2"/><polygon points="123.2,130.1 123.2,130.1 123.2,130.2"/><polygon points="123.5,135.3 123.2,130.2 123.2,130.1"/><polygon points="88.8,106.6 90.5,105.6 89.0,106.6"/><polygon points="123.2,127.9 123.5,124.8 123.2,127.9"/><polygon points="89.0,106.6 90.5,105.6 89.3,106.7"/><polygon points="123.2,127.9 123.0,127.7 123.5,124.8"/><polygon points="88.0,106.7 86.9,107.6 87.7,106.5"/><polygon points="88.8,106.6 91.0,107.6 88.0,106.7"/><polygon points="123.5,135.3 123.2,130.1 123.5,124.8"/><polygon points="123.0,127.7 122.2,127.2 123.5,124.8"/><polygon points="123.5,124.8 122.2,127.2 122.2,124.8"/><polygon points="123.2,127.9 123.5,124.8 123.2,130.1"/><polygon points="121.4,132.2 120.5,132.7 121.5,132.2"/><polygon points="87.6,106.5 90.1,105.0 87.7,106.5"/><polygon points="90.5,105.6 88.8,106.6 90.1,105.0"/><polygon points="122.2,127.2 121.5,127.8 121.4,126.5"/><polygon points="87.7,106.5 90.1,105.0 88.0,106.7"/><polygon points="88.0,106.7 90.1,105.0 88.8,106.6"/><polygon points="89.4,106.6 91.0,107.6 89.3,106.7"/><polygon points="121.4,135.3 121.4,132.2 122.2,135.3"/><polygon points="122.2,135.3 121.5,132.2 122.2,131.7"/><polygon points="26.6,236.7 27.8,234.8 35.6,242.2"/><polygon points="121.5,132.2 122.2,135.3 121.4,132.2"/><polygon points="89.5,106.5 91.0,107.6 89.4,106.6"/><polygon points="122.2,127.2 121.4,126.5 122.2,124.8"/><polygon points="122.2,127.2 122.2,127.2 122.2,124.8"/><polygon points="89.5,106.5 89.4,106.6 90.7,105.9"/><polygon points="38.2,237.8 36.8,240.2 27.8,234.8"/><polygon points="89.3,106.7 90.7,105.9 89.4,106.6"/><polygon points="121.4,124.8 122.2,124.8 121.4,126.5"/><polygon points="121.4,126.5 121.4,126.5 122.2,124.8"/><polygon points="121.2,135.3 118.2,137.7 121.2,134.6"/><polygon points="122.2,136.2 118.2,137.7 121.5,135.3"/><polygon points="121.5,135.3 122.3,135.3 122.2,136.2"/><polygon points="122.2,136.2 122.3,135.3 122.4,135.3"/><polygon points="90.7,105.9 90.5,105.6 90.1,105.0"/><polygon points="121.2,135.3 121.5,135.3 118.2,137.7"/><polygon points="59.3,72.6 68.4,67.4 62.0,77.2"/><polygon points="71.1,71.9 62.0,77.2 68.4,67.4"/><polygon points="68.4,67.4 65.8,62.7 90.7,105.9"/><polygon points="118.2,137.7 122.2,136.2 121.1,139.5"/><polygon points="56.6,68.0 53.9,63.3 65.8,62.7"/><polygon points="63.1,58.1 65.8,62.7 53.9,63.3"/><polygon points="122.4,135.3 122.3,135.3 231.6,135.3"/><polygon points="121.4,135.3 231.6,135.3 121.2,135.3"/><polygon points="121.2,135.3 231.6,135.3 121.2,135.3"/><polygon points="122.3,135.3 121.5,135.3 231.6,135.3"/><polygon points="63.1,58.1 60.4,53.4 90.7,105.9"/><polygon points="83.6,107.5 85.2,110.5 83.4,108.8"/><polygon points="121.5,135.3 121.2,135.3 231.6,135.3"/><polygon points="64.5,81.6 62.0,77.2 73.6,76.4"/><polygon points="71.1,71.9 73.6,76.4 62.0,77.2"/><polygon points="121.2,132.7 121.2,132.9 118.2,137.7"/><polygon points="121.2,135.3 121.2,134.6 121.2,135.3"/><polygon points="121.2,132.9 121.2,135.3 121.2,134.6"/><polygon points="67.0,85.9 64.5,81.6 76.1,80.6"/><polygon points="73.6,76.4 76.1,80.6 64.5,81.6"/><polygon points="78.4,84.6 69.3,89.9 76.1,80.6"/><polygon points="83.6,107.5 84.2,106.9 85.2,110.5"/><polygon points="114.7,142.4 110.2,146.4 110.2,141.1"/><polygon points="110.2,141.1 113.8,135.9 114.7,142.4"/><polygon points="63.7,174.9 24.4,240.3 66.3,170.7"/><polygon points="110.2,146.4 105.5,149.3 104.1,144.6"/><polygon points="83.4,111.1 83.3,109.3 85.2,110.5"/><polygon points="104.1,144.6 110.2,141.1 110.2,146.4"/><polygon points="105.5,149.3 100.2,150.2 104.1,144.6"/><polygon points="104.1,144.6 100.2,150.2 97.3,146.1"/><polygon points="90.7,105.9 65.8,62.7 63.1,58.1"/><polygon points="88.1,148.5 97.3,146.1 100.2,150.2"/><polygon points="113.9,131.0 114.9,124.8 120.5,132.7"/><polygon points="120.0,126.4 120.5,132.7 114.9,124.8"/><polygon points="85.2,110.5 86.9,107.6 89.5,108.8"/><polygon points="120.5,132.7 118.2,137.7 113.9,131.0"/><polygon points="81.6,111.1 59.3,72.6 62.0,77.2"/><polygon points="114.7,142.4 113.8,135.9 118.2,137.7"/><polygon points="83.4,111.1 85.2,110.5 82.6,116.3"/><polygon points="113.8,135.9 113.9,131.0 118.2,137.7"/><polygon points="88.0,106.7 91.0,107.6 86.9,107.6"/><polygon points="118.5,121.1 120.0,126.4 114.9,124.8"/><polygon points="120.5,132.7 121.2,132.4 118.2,137.7"/><polygon points="86.5,105.5 86.9,107.6 86.0,105.0"/><polygon points="119.9,141.6 118.2,137.7 121.1,139.5"/><polygon points="81.6,111.1 56.6,68.0 59.3,72.6"/><polygon points="85.6,105.2 86.0,105.0 86.9,107.6"/><polygon points="109.4,151.6 105.5,149.3 110.2,146.4"/><polygon points="114.7,142.4 115.3,147.2 110.2,146.4"/><polygon points="118.2,137.7 119.9,141.6 114.7,142.4"/><polygon points="119.9,141.6 117.8,144.6 114.7,142.4"/><polygon points="117.8,144.6 115.3,147.2 114.7,142.4"/><polygon points="84.5,105.9 84.9,105.6 85.6,105.2"/><polygon points="81.6,111.1 26.3,15.5 38.6,36.7"/><polygon points="81.6,111.1 81.6,111.1 26.3,15.5"/><polygon points="81.6,111.1 81.5,111.1 26.3,15.5"/><polygon points="86.0,105.0 85.6,105.2 85.8,105.1"/><polygon points="60.4,53.4 35.4,10.2 90.7,105.9"/><polygon points="88.6,102.2 84.9,105.6 84.5,105.9"/><polygon points="80.4,109.1 79.5,107.5 84.3,106.8"/><polygon points="35.4,10.2 90.3,105.3 35.4,10.2"/><polygon points="89.5,103.8 86.5,105.5 88.6,102.2"/><polygon points="88.6,102.2 84.5,105.9 79.5,107.5"/><polygon points="50.0,35.5 52.5,39.8 40.9,40.8"/><polygon points="43.4,45.0 40.9,40.8 52.5,39.8"/><polygon points="51.2,58.6 60.4,53.4 53.9,63.3"/><polygon points="63.1,58.1 53.9,63.3 60.4,53.4"/><polygon points="43.4,45.0 55.0,44.2 45.9,49.4"/><polygon points="55.0,44.2 43.4,45.0 52.5,39.8"/><polygon points="48.6,54.0 57.7,48.7 51.2,58.6"/><polygon points="86.9,107.6 85.2,110.5 84.2,106.9"/><polygon points="24.4,240.3 63.7,174.9 61.1,179.3"/><polygon points="81.6,111.1 38.6,36.7 40.9,40.8"/><polygon points="86.9,107.6 84.2,106.9 84.3,106.8"/><polygon points="84.5,105.9 85.6,105.2 86.9,107.6"/><polygon points="84.3,106.8 84.5,105.9 86.9,107.6"/><polygon points="47.7,31.5 50.0,35.5 38.6,36.7"/><polygon points="43.4,45.0 81.6,111.1 40.9,40.8"/><polygon points="85.2,105.4 85.6,105.2 84.9,105.6"/><polygon points="85.8,105.1 85.6,105.2 85.2,105.4"/><polygon points="43.4,45.0 45.9,49.4 81.6,111.1"/><polygon points="26.6,236.7 35.6,242.2 34.6,243.7"/><polygon points="60.4,53.4 51.2,58.6 57.7,48.7"/><polygon points="45.9,49.4 55.0,44.2 48.6,54.0"/><polygon points="57.7,48.7 48.6,54.0 55.0,44.2"/><polygon points="34.6,243.7 25.6,238.3 26.6,236.7"/><polygon points="34.0,244.9 33.6,245.5 24.9,239.4"/><polygon points="33.6,245.5 24.4,240.3 24.5,240.1"/><polygon points="25.6,238.3 34.6,243.7 24.9,239.4"/><polygon points="34.0,244.9 24.9,239.4 34.6,243.7"/><polygon points="24.4,240.3 68.6,166.7 66.3,170.7"/><polygon points="24.4,240.3 52.8,193.0 50.1,197.7"/><polygon points="24.4,240.3 50.1,197.7 47.3,202.2"/><polygon points="44.6,206.8 24.4,240.3 47.3,202.2"/><polygon points="24.4,240.3 44.6,206.8 42.0,211.1"/><polygon points="39.4,215.3 24.4,240.3 42.0,211.1"/><polygon points="39.4,215.3 37.0,219.3 24.4,240.3"/><polygon points="24.4,240.3 30.9,229.6 29.2,232.4"/><polygon points="24.4,240.3 29.2,232.4 27.8,234.8"/><polygon points="24.4,240.3 27.8,234.8 26.6,236.7"/><polygon points="24.4,240.3 61.1,179.3 58.4,183.8"/><polygon points="24.4,240.3 58.4,183.8 55.6,188.4"/><polygon points="24.4,240.3 55.6,188.4 52.8,193.0"/><polygon points="24.4,240.3 32.7,226.5 30.9,229.6"/><polygon points="32.7,226.5 24.4,240.3 34.8,223.0"/><polygon points="37.0,219.3 34.8,223.0 24.4,240.3"/><polygon points="24.4,240.3 26.6,236.7 25.6,238.3"/><polygon points="25.6,238.3 24.9,239.4 24.4,240.3"/><polygon points="24.4,240.3 24.9,239.4 24.5,240.1"/><polygon points="33.4,245.8 33.4,245.8 24.4,240.3"/><polygon points="24.5,240.1 24.9,239.4 33.6,245.5"/><polygon points="33.4,245.8 24.4,240.3 33.6,245.5"/><polygon points="24.4,240.3 33.4,245.8 24.4,240.3"/><polygon points="24.4,240.3 80.6,146.9 24.4,240.3"/></svg>