<svg version="1" xmlns="http://www.w3.org/2000/svg" width="1310.667" height="1310.667" viewBox="0 0 983.000000 983.000000"><path d="M556 66c0 49.5-.3 63.2-1.2 63.5-.7.3-15.9 3-33.8 6-17.9 3.1-33.7 5.8-35.2 6.1l-2.8.6v786.5l27.8.7c30.1.7 63.1 2.1 95.2 4 11.3.7 20.6 1.2 20.7 1.1.3-.1-2.8-815.9-3.1-816.3-.2-.1-13.4 2-29.3 4.8-15.9 2.7-29.5 5-30.1 5-.9 0-1.2-15.7-1.2-62.5V3h-7v63zM161.7 116C81 130.6 23.3 207.5 6 323.5 2.1 349.6.8 370.9.6 411c-.1 41 .7 53.6 5 81.6 7.7 50.6 24.7 90.4 49.2 115.1 12.4 12.5 31.8 30 38 34.2 12.9 8.7 29.6 15.5 46 18.8 13.2 2.6 39.4 2.3 53-.6 12.1-2.5 23.6-6.6 32.9-11.5 3.7-2 6.9-3.4 7.1-3.1.7.6-1.7 19.7-4.4 35.5-11.6 68.1-36.5 104.9-77.7 115.1-29 7.1-68-.1-107.7-20.1-4.5-2.3-8.3-4-8.5-3.8-.5.6-2.5 129.1-2 129.8.3.5 4.5 2.3 9.5 4l8.9 3.2.3 5.6.3 5.6 14 4.9c33.3 11.6 57.9 15.8 92 15.8 37.5 0 65.4-6.2 93.3-20.6 14.1-7.4 24.6-15 38-28 18.3-17.5 30.5-34.6 43.5-60.3 29.7-58.6 46-133.7 53.3-245l.7-10.4-10.2.4-10.1.3V572l-12 .7-12 .6v-2.4c0-1.3 1.1-22.2 2.5-46.4s2.5-44.6 2.5-45.3c0-.9 4.9-1.2 21-1.2h21.1l-.6-23.3c-.3-12.7-1-32.4-1.6-43.7-5-104.1-24.7-178.7-59-223.7-9-11.8-40.9-42.2-52.1-49.6-15.9-10.5-31.5-17-50.5-20.8-15.8-3.2-47.4-3.6-62.6-.9zm54 141.2c4.1 3.4 11 23.4 14.8 43 5.4 28.1 6 38.9 5.9 108.8-.1 35.5-.5 72.8-.9 83l-.7 18.5-4.4 3.5c-15.6 12.5-34.1 18.3-50.7 16-11.6-1.7-14-3.2-17.5-10.8-6-13.2-9.5-27.7-11.7-49.2-1.8-16.1-2-72.2-.5-97 4.5-71.4 19-109.4 44.8-116.7 5.6-1.6 18.6-1 20.9.9zM633.6 208.7c.6 106.8 2.4 624.3 2.4 684v41.2l5.3.5c6.3.7 67.7 5.6 69.5 5.6 1.5 0 1.8-790.5.2-791.5-1.5-.9-76.4-30.5-77.2-30.5-.4 0-.5 40.8-.2 90.7zM905.1 228.7c.1 59.9.6 241.2 1.2 403.1 1 248 1.4 294.4 2.6 295.1.7.5 3.7 1.2 6.5 1.5 6.3.8 63.5 12.2 65.9 13.2 1.6.6 1.7-20.8 1.5-396.1l-.3-396.8-38-14.3c-20.9-7.9-38.3-14.4-38.7-14.4-.5 0-.8 48.9-.7 108.7zM825 138.6c-37.7 6.2-68.8 11.3-69.2 11.4-.5 0-.8 172.2-.8 382.7v382.8l34.4 3.8c30.2 3.3 99.9 12.7 106.3 14.3l2.3.6v-44.8c0-33.6-2.8-757.5-3-761.7 0-.4-.3-.7-.7-.6-.5.1-31.6 5.2-69.3 11.5z"/><path d="M358.6 491.2c-.6 5.6-2.6 59.7-2.6 68.5v5.3H455.7l.6-12.8c.4-7 1-22.3 1.3-33.9l.7-21.3-3.9.3-3.9.2-.3-5.8-.3-5.7h-90.8l-.5 5.2z"/></svg>